<svg width="82" height="82" viewBox="0 0 82 82" fill="none" xmlns="http://www.w3.org/2000/svg">
<path d="M41.0001 79.7838C19.5804 79.7838 2.21631 62.4197 2.21631 41C2.21631 19.5803 19.5804 2.21622 41.0001 2.21622C62.4198 2.21622 79.7839 19.5803 79.7839 41C79.7596 62.4096 62.4097 79.7595 41.0001 79.7838ZM41.0001 4.34803C20.7579 4.34803 4.34855 20.7577 4.34855 40.9999C4.34855 61.242 20.7581 77.6515 41.0002 77.6515C61.2424 77.6515 77.6521 61.2421 77.6521 41C77.6292 20.7672 61.2329 4.37099 41.0001 4.34803Z" fill="#2FAC66"/>
<path d="M41 60.7438C33.0142 60.7438 25.8148 55.9333 22.7589 48.5554C19.7029 41.1776 21.3921 32.6853 27.0389 27.0386C32.6857 21.3918 41.178 19.7027 48.5558 22.7587C55.9336 25.8148 60.744 33.0143 60.744 41C60.7316 51.8992 51.8991 60.7316 41 60.7438ZM41 22.0551C30.5371 22.0551 22.0552 30.5369 22.0552 40.9998C22.0552 51.4627 30.5371 59.9445 41 59.9445C51.4628 59.9445 59.9447 51.4627 59.9447 40.9998C59.9327 30.5419 51.4579 22.0671 41 22.0551Z" fill="#2FAC66"/>
<path d="M53.8618 47.802L60.353 36.5587L66.4456 40.0761L59.9544 51.3195L53.8618 47.802Z" fill="#E20E18"/>
<path d="M47.7695 44.2846L54.2607 33.0412L60.3534 36.5587L53.8621 47.8021L47.7695 44.2846Z" fill="white"/>
<path d="M41.6772 40.7673L48.1685 29.5239L54.2611 33.0414L47.7699 44.2848L41.6772 40.7673Z" fill="#253574"/>
<path d="M48.4319 30.5068L65.4628 40.3395L59.691 50.3367L42.6601 40.5039L48.4319 30.5068ZM48.1685 29.5239L41.6772 40.7673L59.9545 51.3198L66.4458 40.0764L48.1685 29.5239Z" fill="#253574"/>
<path d="M35.4995 51.0712L48.4018 28.7154L49.0942 29.115L36.192 51.4709L35.4995 51.0712Z" fill="#253574"/>
<path d="M15.5547 40.0268L33.8321 29.4744L40.3234 40.7177L22.046 51.2701L15.5547 40.0268Z" fill="#253574"/>
<path d="M29.8844 44.7757L30.1134 44.2824L30.6346 44.3428L30.2391 43.9941L30.4763 43.5171L30.0191 43.7818L29.6266 43.439L29.7269 43.9499L29.2637 44.2172L29.7806 44.2592L29.8844 44.7757Z" fill="#FFE910"/>
<path d="M25.7801 37.4387L26.007 36.9536L26.5299 37.0059L26.14 36.655L26.3721 36.1801L25.9144 36.4452L25.5202 36.1107L25.6231 36.6134L25.1646 36.8781L25.678 36.9145L25.7801 37.4387Z" fill="#FFE910"/>
<path d="M24.0156 43.2692L24.2425 42.784L24.7761 42.8299L24.3858 42.4799L24.6303 42.0123L24.1661 42.2795L23.7638 41.9432L23.8642 42.4541L23.4009 42.7218L23.9088 42.748L24.0156 43.2692Z" fill="#FFE910"/>
<path d="M31.6225 38.8633L31.8494 38.3781L32.3775 38.4271L31.9901 38.068L32.2261 37.612L31.7675 37.8771L31.3707 37.5374L31.4664 38.0517L31.0078 38.3159L31.5157 38.3421L31.6225 38.8633Z" fill="#FFE910"/>
<path d="M28.0009 36.8232L28.2334 36.3354L28.7615 36.3848L28.3711 36.0339L28.6071 35.5637L28.1485 35.8288L27.7483 35.4835L27.8465 36.0034L27.3828 36.2707L27.8976 36.3071L28.0009 36.8232Z" fill="#FFE910"/>
<path d="M30.1276 37.3937L30.3601 36.9051L30.8882 36.954L30.4952 36.5984L30.7307 36.1291L30.2722 36.3933L29.8749 36.054L29.965 36.5713L29.5073 36.8352L30.0264 36.869L30.1276 37.3937Z" fill="#FFE910"/>
<path d="M32.0532 40.9682L32.2831 40.4887L32.8159 40.5346L32.4255 40.1837L32.6645 39.7062L32.2003 39.9739L31.8027 39.6337L31.8983 40.1485L31.4351 40.4157L31.9524 40.4569L32.0532 40.9682Z" fill="#FFE910"/>
<path d="M31.4559 43.1323L31.685 42.639L32.2164 42.6935L31.8231 42.337L32.0637 41.8647L31.6056 42.1294L31.2032 41.7927L31.2985 42.307L30.8403 42.5712L31.3542 42.6077L31.4559 43.1323Z" fill="#FFE910"/>
<path d="M27.7695 45.2609L27.9986 44.7675L28.5344 44.819L28.1367 44.4656L28.3774 43.9937L27.9136 44.2605L27.5169 43.9212L27.6121 44.4351L27.1479 44.7028L27.6627 44.7397L27.7695 45.2609Z" fill="#FFE910"/>
<path d="M25.6909 44.6556L25.9208 44.1756L26.4459 44.2193L26.0585 43.8736L26.2966 43.3961L25.8333 43.6638L25.4391 43.3297L25.5313 43.838L25.0728 44.1031L25.5892 44.1443L25.6909 44.6556Z" fill="#FFE910"/>
<path d="M23.4581 41.2445L23.6846 40.7593L24.2187 40.8057L23.8253 40.4492L24.0659 39.9773L23.6022 40.2446L23.2003 39.9078L23.2951 40.4222L22.8374 40.6864L23.3513 40.7233L23.4581 41.2445Z" fill="#FFE910"/>
<path d="M23.992 39.152L24.2189 38.6664L24.747 38.7157L24.357 38.3649L24.5925 37.8956L24.1348 38.1598L23.7286 37.8179L23.8328 38.3344L23.3691 38.6016L23.8835 38.6385L23.992 39.152Z" fill="#FFE910"/>
<path d="M32.9131 29.1162L33.6055 28.7165L46.5114 51.07L45.819 51.4698L32.9131 29.1162Z" fill="#253574"/>
<path d="M11.7822 26.932L14.5533 22.0844L15.955 22.8858L14.1486 26.0464L16.1209 27.1739L17.6557 24.4886L19.0579 25.2901L17.5231 27.9754L21.0637 29.9994L20.0989 31.6867L11.7822 26.932Z" fill="#2FAC66"/>
<path d="M17.8472 18.1886L20.0967 16.3148C21.7155 14.9659 23.4061 14.9646 24.5445 16.3311C25.2646 17.1193 25.4227 18.2706 24.9416 19.2237L29.9584 20.5642L28.2026 22.0266L23.7589 20.6899L22.9913 21.3285L25.4698 24.3035L23.977 25.5472L17.8472 18.1886ZM20.3732 18.1858L21.9581 20.0883L22.7989 19.3875C23.1653 19.1127 23.3502 18.6582 23.28 18.2057C23.2097 17.7531 22.8957 17.3761 22.4633 17.2253C22.0308 17.0744 21.5504 17.1743 21.214 17.485L20.3732 18.1858Z" fill="#2FAC66"/>
<path d="M31.628 10.0127L34.0911 9.37094L40.0156 17.7275L38.0157 18.2484L36.5005 16.0692L32.7921 17.0348L32.5326 19.6762L30.5327 20.1974L31.628 10.0127ZM35.5006 14.6188L33.3214 11.4659L32.9576 15.2809L35.5006 14.6188Z" fill="#2FAC66"/>
<path d="M43.3121 8.44351L45.7508 8.95059L48.5348 16.6033L49.945 9.82258L51.8479 10.2187L49.8969 19.5982L47.4581 19.0909L44.6744 11.4389L43.264 18.219L41.3613 17.8233L43.3121 8.44351Z" fill="#2FAC66"/>
<path d="M59.3075 22.7935L59.784 24.666C58.2544 25.0729 56.6225 24.7158 55.4026 23.7072C53.5615 22.2288 52.9871 19.6737 54.0184 17.5496C55.0498 15.4254 57.4128 14.2965 59.7133 14.829C62.0138 15.3615 63.6405 17.4138 63.6336 19.7751L61.6936 19.7626C61.7644 18.7635 61.3309 17.7951 60.5387 17.1823C59.1198 16.0657 57.2381 16.3769 56.1041 17.8172C54.9701 19.2574 55.1092 21.1607 56.528 22.2771C57.3097 22.9036 58.353 23.0974 59.3075 22.7935Z" fill="#2FAC66"/>
<path d="M67.9165 22.8466L70.6185 27.7315L69.2057 28.5129L67.4442 25.3284L65.4567 26.4272L66.9532 29.1329L65.5405 29.9146L64.0439 27.2089L61.8888 28.4003L63.6503 31.5854L62.2374 32.3665L59.5356 27.4821L67.9165 22.8466Z" fill="#2FAC66"/>
<path d="M18.8178 48.2584L20.1219 50.8799C21.0602 52.7663 20.6719 54.4118 19.0792 55.2039C18.1462 55.7228 16.9895 55.6108 16.1734 54.9223L13.7105 59.4943L12.6928 57.4484L15.02 53.4333L14.5751 52.5393L11.1084 54.2638L10.2432 52.524L18.8178 48.2584ZM18.2376 50.7174L16.0207 51.8204L16.5081 52.8002C16.6917 53.2189 17.091 53.5026 17.5468 53.5382C18.0027 53.5738 18.4411 53.3556 18.6875 52.9705C18.934 52.5853 18.9485 52.0958 18.7252 51.6968L18.2376 50.7174Z" fill="#2FAC66"/>
<path d="M23.1009 55.8339L27.1173 59.7105L25.9962 60.8726L23.3773 58.3453L21.8001 59.979L24.025 62.1268L22.904 63.288L20.679 61.1411L18.9687 62.9131L21.5873 65.4404L20.4659 66.602L16.4492 62.7256L23.1009 55.8339Z" fill="#2FAC66"/>
<path d="M28.7987 60.7486L30.5453 61.5985L27.127 68.6228L30.3989 70.2151L29.6268 71.8015L24.6079 69.3592L28.7987 60.7486Z" fill="#2FAC66"/>
<path d="M37.8589 63.9181L40.3951 64.1276L43.2196 73.9722L41.1606 73.8026L40.4521 71.2448L36.6337 70.9289L35.5146 73.3351L33.4556 73.165L37.8589 63.9181ZM39.9884 69.5449L38.976 65.8501L37.3704 69.3283L39.9884 69.5449Z" fill="#2FAC66"/>
<path d="M44.8174 64.2004L47.1555 63.3433L53.559 68.3685L51.1758 61.8692L52.9997 61.2L56.2968 70.1914L53.959 71.0489L47.5551 66.0234L49.9385 72.5231L48.1146 73.1917L44.8174 64.2004Z" fill="#2FAC66"/>
<path d="M64.2516 59.9313L66.1675 59.6837C66.3875 61.2513 65.8365 62.8286 64.6881 63.918C62.9986 65.5682 60.3926 65.8309 58.4077 64.5513C56.4228 63.2716 55.5864 60.7895 56.392 58.5695C57.1976 56.3496 59.4312 54.9815 61.7748 55.2726L61.5289 57.1975C60.5456 57.0071 59.5321 57.3207 58.8282 58.0332C57.5486 59.308 57.6314 61.2136 58.9252 62.5126C60.219 63.8116 62.1246 63.903 63.4044 62.6284C64.1199 61.9275 64.4378 60.9154 64.2516 59.9313Z" fill="#2FAC66"/>
<path d="M60.9863 52.8595L63.2799 47.7697L64.7519 48.4325L63.2566 51.751L65.3275 52.6844L66.5978 49.8651L68.0696 50.5278L66.7995 53.3475L69.0449 54.3592L70.54 51.041L72.012 51.7045L69.7184 56.7938L60.9863 52.8595Z" fill="#2FAC66"/>
</svg>
