<svg width="198" height="98" viewBox="0 0 198 98" fill="none" xmlns="http://www.w3.org/2000/svg">
<g clip-path="url(#clip0_72_528)">
<path d="M74.7607 80.5389H75.3356V86.3453H77.9862V86.8717H74.7607V80.5389Z" fill="#878788"/>
<path d="M81.148 87.0631C79.647 87.0631 78.689 85.9306 78.689 84.6066C78.689 83.1869 79.5991 82.1501 80.9724 82.1501C82.2019 82.1501 82.9683 83.0274 82.9683 84.0961C82.9683 84.2397 82.9524 84.3673 82.9364 84.479H79.2478C79.2478 84.5109 79.2478 84.5587 79.2478 84.5906C79.2478 85.7551 80.0303 86.5846 81.164 86.5846C81.8027 86.5846 82.3456 86.2815 82.6809 85.8189L83.0961 86.1379C82.649 86.6962 81.9783 87.0631 81.148 87.0631ZM79.2798 84.0323H82.4094C82.3775 83.2348 81.8346 82.5967 80.9404 82.5967C80.0941 82.6126 79.4554 83.139 79.2798 84.0323Z" fill="#878788"/>
<path d="M86.6887 85.9625C87.04 86.3931 87.4392 86.6005 87.9183 86.6005C88.5091 86.6005 88.8604 86.2177 88.8604 85.7551C88.8604 84.5906 86.5131 84.9894 86.5131 83.3783C86.5131 82.7243 87.072 82.1501 87.9183 82.1501C88.541 82.1501 89.052 82.4531 89.3713 82.8838L88.9721 83.2028C88.7166 82.82 88.3494 82.6127 87.9342 82.6127C87.3594 82.6127 87.04 82.9636 87.04 83.3783C87.04 84.5587 89.3873 84.2078 89.3873 85.7391C89.3873 86.5208 88.7645 87.0631 87.9342 87.0631C87.2476 87.0631 86.6887 86.7919 86.2896 86.2815L86.6887 85.9625Z" fill="#878788"/>
<path d="M92.7408 87.0631C91.2398 87.0631 90.2817 85.9306 90.2817 84.6066C90.2817 83.1869 91.1919 82.1501 92.5651 82.1501C93.7946 82.1501 94.5611 83.0274 94.5611 84.0961C94.5611 84.2397 94.5451 84.3673 94.5292 84.479H90.8406C90.8406 84.5109 90.8406 84.5587 90.8406 84.5906C90.8406 85.7551 91.623 86.5846 92.7567 86.5846C93.3954 86.5846 93.9384 86.2815 94.2737 85.8189L94.6888 86.1379C94.2577 86.6962 93.5871 87.0631 92.7408 87.0631ZM90.8885 84.0323H94.0182C93.9862 83.2348 93.4433 82.5967 92.5491 82.5967C91.7029 82.6126 91.0642 83.139 90.8885 84.0323Z" fill="#878788"/>
<path d="M95.998 82.3096H96.525V82.9636C96.8922 82.485 97.3234 82.2139 97.9461 82.2139C98.0739 82.2139 98.2016 82.2298 98.3293 82.2617V82.7722C98.1856 82.7403 98.0739 82.7084 97.9142 82.7084C97.2914 82.7084 96.8763 83.0114 96.5409 83.5857V86.8557H96.014V82.3096H95.998Z" fill="#878788"/>
<path d="M99.5271 82.3096L101.172 86.3612L102.801 82.3096H103.375L101.523 86.8717H100.821L98.9683 82.3096H99.5271Z" fill="#878788"/>
<path d="M104.317 80.4751C104.317 80.2518 104.509 80.0764 104.733 80.0764C104.956 80.0764 105.148 80.2518 105.148 80.4751C105.148 80.7144 104.972 80.8899 104.733 80.8899C104.509 80.8739 104.317 80.6985 104.317 80.4751ZM104.477 82.3096H105.004V86.8717H104.477V82.3096Z" fill="#878788"/>
<path d="M110.321 85.787L110.752 86.122C110.337 86.6803 109.666 87.0471 108.836 87.0471C107.351 87.0471 106.377 85.9146 106.377 84.5906C106.377 83.2666 107.351 82.1341 108.836 82.1341C109.666 82.1341 110.337 82.501 110.752 83.0593L110.321 83.3943C110.002 82.9317 109.475 82.6286 108.836 82.6286C107.718 82.6286 106.936 83.5059 106.936 84.5906C106.936 85.6753 107.718 86.5526 108.852 86.5526C109.475 86.5526 109.986 86.2496 110.321 85.787Z" fill="#878788"/>
<path d="M113.802 87.0631C112.301 87.0631 111.343 85.9306 111.343 84.6066C111.343 83.1869 112.253 82.1501 113.611 82.1501C114.84 82.1501 115.607 83.0274 115.607 84.0961C115.607 84.2397 115.591 84.3673 115.575 84.479H111.886C111.886 84.5109 111.886 84.5587 111.886 84.5906C111.886 85.7551 112.669 86.5846 113.802 86.5846C114.441 86.5846 114.984 86.2815 115.319 85.8189L115.734 86.1379C115.303 86.6962 114.633 87.0631 113.802 87.0631ZM111.934 84.0323H115.064C115.032 83.2348 114.489 82.5967 113.595 82.5967C112.748 82.6126 112.11 83.139 111.934 84.0323Z" fill="#878788"/>
<path d="M119.487 82.3096H120.014V82.9636C120.445 82.4372 121.052 82.1341 121.77 82.1341C123.191 82.1341 124.133 83.2666 124.133 84.5906C124.133 85.9146 123.191 87.0471 121.77 87.0471C121.052 87.0471 120.445 86.7441 120.014 86.2177V89.1049H119.487V82.3096ZM120.03 83.5857V85.6115C120.413 86.2336 121.052 86.5526 121.738 86.5526C122.824 86.5526 123.575 85.6753 123.575 84.5906C123.575 83.5059 122.824 82.6286 121.738 82.6286C121.036 82.6445 120.397 82.9795 120.03 83.5857Z" fill="#878788"/>
<path d="M128.78 82.3096H129.307V84.9256C129.307 86.2815 128.524 87.0472 127.359 87.0472C126.177 87.0472 125.395 86.2815 125.395 84.9256V82.3096H125.921V84.9416C125.921 85.9784 126.496 86.5527 127.359 86.5527C128.205 86.5527 128.78 85.9784 128.78 84.9416V82.3096Z" fill="#878788"/>
<path d="M133.283 87.0631C132.564 87.0631 131.958 86.76 131.526 86.2336V86.8876H131V80.0923H131.526V82.9636C131.958 82.4372 132.564 82.1341 133.283 82.1341C134.704 82.1341 135.646 83.2667 135.646 84.5906C135.646 85.9305 134.704 87.0631 133.283 87.0631ZM131.526 83.5857V85.6115C131.91 86.2336 132.548 86.5527 133.235 86.5527C134.321 86.5527 135.071 85.6753 135.071 84.5906C135.071 83.5059 134.321 82.6286 133.235 82.6286C132.532 82.6445 131.91 82.9795 131.526 83.5857Z" fill="#878788"/>
<path d="M137.019 80.0923H137.546V86.8876H137.019V80.0923Z" fill="#878788"/>
<path d="M139.207 80.4751C139.207 80.2518 139.398 80.0764 139.622 80.0764C139.845 80.0764 140.037 80.2518 140.037 80.4751C140.037 80.7144 139.861 80.8899 139.622 80.8899C139.382 80.8899 139.207 80.6985 139.207 80.4751ZM139.35 82.3096H139.877V86.8717H139.35V82.3096Z" fill="#878788"/>
<path d="M145.195 85.787L145.626 86.122C145.21 86.6803 144.54 87.0471 143.71 87.0471C142.225 87.0471 141.25 85.9146 141.25 84.5906C141.25 83.2666 142.225 82.1341 143.71 82.1341C144.54 82.1341 145.21 82.501 145.626 83.0593L145.195 83.3943C144.875 82.9317 144.348 82.6286 143.71 82.6286C142.592 82.6286 141.809 83.5059 141.809 84.5906C141.809 85.6753 142.592 86.5526 143.725 86.5526C144.348 86.5526 144.875 86.2496 145.195 85.787Z" fill="#878788"/>
<path d="M149.267 82.3096H149.794V82.9636C150.225 82.4372 150.831 82.1341 151.55 82.1341C152.971 82.1341 153.913 83.2666 153.913 84.5906C153.913 85.9146 152.971 87.0471 151.55 87.0471C150.831 87.0471 150.225 86.7441 149.794 86.2177V89.1049H149.267V82.3096ZM149.794 83.5857V85.6115C150.177 86.2336 150.815 86.5526 151.502 86.5526C152.588 86.5526 153.338 85.6753 153.338 84.5906C153.338 83.5059 152.588 82.6286 151.502 82.6286C150.815 82.6445 150.177 82.9795 149.794 83.5857Z" fill="#878788"/>
<path d="M159.805 84.6066C159.805 85.9146 158.815 87.0631 157.346 87.0631C155.893 87.0631 154.903 85.8986 154.903 84.6066C154.903 83.2985 155.893 82.15 157.346 82.15C158.815 82.1341 159.805 83.2985 159.805 84.6066ZM159.23 84.6066C159.23 83.5538 158.432 82.6445 157.346 82.6445C156.228 82.6445 155.446 83.5538 155.446 84.6066C155.446 85.6434 156.228 86.5686 157.346 86.5686C158.432 86.5526 159.23 85.6275 159.23 84.6066Z" fill="#878788"/>
<path d="M164.436 82.3096H164.963V84.9256C164.963 86.2815 164.18 87.0472 163.015 87.0472C161.833 87.0472 161.051 86.2815 161.051 84.9256V82.3096H161.578V84.9416C161.578 85.9784 162.153 86.5527 163.015 86.5527C163.861 86.5527 164.436 85.9784 164.436 84.9416V82.3096Z" fill="#878788"/>
<path d="M166.655 82.3096H167.182V82.9636C167.549 82.485 167.981 82.2139 168.603 82.2139C168.731 82.2139 168.859 82.2298 168.987 82.2617V82.7722C168.843 82.7403 168.731 82.7084 168.571 82.7084C167.949 82.7084 167.534 83.0114 167.198 83.5857V86.8557H166.671V82.3096H166.655Z" fill="#878788"/>
<path d="M172.643 82.3096H173.17V82.9157C173.537 82.4372 174.048 82.1341 174.719 82.1341C175.421 82.1341 175.996 82.4691 176.268 83.1071C176.651 82.5169 177.178 82.1341 177.96 82.1341C178.95 82.1341 179.669 82.7881 179.669 83.9845V86.8717H179.142V84.0004C179.142 83.1071 178.631 82.6286 177.896 82.6286C177.258 82.6286 176.795 82.9476 176.411 83.6016C176.427 83.7133 176.443 83.8409 176.443 83.9685V86.8557H175.916V83.9845C175.916 83.0912 175.421 82.6126 174.671 82.6126C173.984 82.6126 173.505 82.9955 173.202 83.5697V86.8557H172.675V82.3096H172.643Z" fill="#878788"/>
<path d="M181.218 80.4751C181.218 80.2518 181.409 80.0764 181.633 80.0764C181.856 80.0764 182.048 80.2518 182.048 80.4751C182.048 80.7144 181.872 80.8899 181.633 80.8899C181.409 80.8739 181.218 80.6985 181.218 80.4751ZM181.361 82.3096H181.888V86.8717H181.361V82.3096Z" fill="#878788"/>
<path d="M185.737 87.0631C184.236 87.0631 183.278 85.9306 183.278 84.6066C183.278 83.1869 184.188 82.1501 185.561 82.1501C186.791 82.1501 187.557 83.0274 187.557 84.0961C187.557 84.2397 187.541 84.3673 187.525 84.479H183.837C183.837 84.5109 183.837 84.5587 183.837 84.5906C183.837 85.7551 184.619 86.5846 185.753 86.5846C186.392 86.5846 186.934 86.2815 187.27 85.8189L187.685 86.1379C187.238 86.6962 186.567 87.0631 185.737 87.0631ZM183.869 84.0323H186.998C186.966 83.2348 186.423 82.5967 185.529 82.5967C184.683 82.6126 184.044 83.139 183.869 84.0323Z" fill="#878788"/>
<path d="M192.172 82.3096H192.699V84.9256C192.699 86.2815 191.916 87.0472 190.751 87.0472C189.569 87.0472 188.787 86.2815 188.787 84.9256V82.3096H189.33V84.9416C189.33 85.9784 189.904 86.5527 190.767 86.5527C191.613 86.5527 192.188 85.9784 192.188 84.9416V82.3096H192.172Z" fill="#878788"/>
<path d="M193.688 86.8876L195.413 84.5109L193.816 82.3255H194.439L195.78 84.1599L197.106 82.3255H197.728L196.132 84.5109L197.872 86.8876H197.249L195.764 84.8618L194.279 86.8876H193.688Z" fill="#878788"/>
<path d="M74.6011 93.1885H75.128V93.8425C75.4953 93.3639 75.9264 93.0927 76.5491 93.0927C76.6769 93.0927 76.8046 93.1087 76.9324 93.1406V93.651C76.7887 93.6191 76.6769 93.5872 76.5172 93.5872C75.8945 93.5872 75.4793 93.8903 75.144 94.4646V97.7346H74.617V93.1885H74.6011Z" fill="#878788"/>
<path d="M79.8707 97.9261C78.3697 97.9261 77.4116 96.7935 77.4116 95.4695C77.4116 94.0498 78.3218 93.013 79.695 93.013C80.9245 93.013 81.691 93.8903 81.691 94.9591C81.691 95.1026 81.675 95.2303 81.659 95.3419H77.9705C77.9705 95.3738 77.9705 95.4217 77.9705 95.4536C77.9705 96.618 78.7529 97.4475 79.8866 97.4475C80.5253 97.4475 81.0682 97.1444 81.4036 96.6818L81.8187 97.0009C81.3716 97.5751 80.701 97.9261 79.8707 97.9261ZM78.0184 94.9112H81.1481C81.1161 94.1136 80.5732 93.4756 79.679 93.4756C78.8168 93.4756 78.1781 94.0179 78.0184 94.9112ZM79.4076 92.4547L80.3657 90.9553H80.9884L79.9345 92.4547H79.4076Z" fill="#878788"/>
<path d="M83.1122 93.1885H83.6391V93.8106C84.0383 93.3161 84.5493 92.997 85.2678 92.997C86.3057 92.997 87.0562 93.683 87.0562 94.9431V97.7346H86.5133V94.9591C86.5133 94.0179 85.9863 93.5075 85.188 93.5075C84.4694 93.5075 83.9744 93.8744 83.6231 94.4646V97.7506H83.0962V93.1885H83.1122Z" fill="#878788"/>
<path d="M93.2517 95.4695C93.2517 96.7775 92.2617 97.9261 90.7927 97.9261C89.3396 97.9261 88.3496 96.7616 88.3496 95.4695C88.3496 94.1615 89.3396 93.013 90.7927 93.013C92.2617 93.013 93.2517 94.1615 93.2517 95.4695ZM92.6769 95.4695C92.6769 94.4167 91.8785 93.5075 90.7927 93.5075C89.6749 93.5075 88.8925 94.4167 88.8925 95.4695C88.8925 96.5064 89.6749 97.4316 90.7927 97.4316C91.8785 97.4316 92.6769 96.5064 92.6769 95.4695Z" fill="#878788"/>
<path d="M94.4012 93.1885L96.0458 97.2401L97.6745 93.1885H98.2494L96.3971 97.7506H95.6945L93.8423 93.1885H94.4012Z" fill="#878788"/>
<path d="M101.299 97.9261C99.7984 97.9261 98.8403 96.7935 98.8403 95.4695C98.8403 94.0498 99.7505 93.013 101.124 93.013C102.353 93.013 103.12 93.8903 103.12 94.9591C103.12 95.1026 103.104 95.2303 103.088 95.3419H99.3992C99.3992 95.3738 99.3992 95.4217 99.3992 95.4536C99.3992 96.618 100.182 97.4475 101.315 97.4475C101.954 97.4475 102.497 97.1444 102.832 96.6818L103.247 97.0009C102.8 97.5751 102.13 97.9261 101.299 97.9261ZM99.4311 94.9112H102.561C102.529 94.1137 101.986 93.4756 101.092 93.4756C100.245 93.4756 99.6068 94.0179 99.4311 94.9112Z" fill="#878788"/>
<path d="M104.541 93.1885H105.068V93.8425C105.435 93.3639 105.866 93.0927 106.489 93.0927C106.617 93.0927 106.745 93.1087 106.872 93.1406V93.651C106.729 93.6191 106.617 93.5872 106.457 93.5872C105.834 93.5872 105.419 93.8903 105.084 94.4646V97.7346H104.557V93.1885H104.541Z" fill="#878788"/>
<path d="M110.529 93.1885H111.056V93.7946C111.423 93.3161 111.934 93.013 112.605 93.013C113.307 93.013 113.882 93.348 114.153 93.986C114.537 93.3958 115.064 93.013 115.846 93.013C116.836 93.013 117.555 93.667 117.555 94.8634V97.7506H117.028V94.8793C117.028 93.986 116.517 93.5075 115.782 93.5075C115.143 93.5075 114.68 93.8265 114.297 94.4805C114.313 94.5922 114.329 94.7198 114.329 94.8474V97.7346H113.802V94.8634C113.802 93.9701 113.307 93.4915 112.557 93.4915C111.87 93.4915 111.391 93.8744 111.088 94.4486V97.7346H110.561V93.1885H110.529Z" fill="#878788"/>
<path d="M123.734 95.4695C123.734 96.7775 122.744 97.9261 121.275 97.9261C119.822 97.9261 118.832 96.7616 118.832 95.4695C118.832 94.1615 119.822 93.013 121.275 93.013C122.744 93.013 123.734 94.1615 123.734 95.4695ZM123.159 95.4695C123.159 94.4167 122.361 93.5075 121.275 93.5075C120.157 93.5075 119.375 94.4167 119.375 95.4695C119.375 96.5064 120.157 97.4316 121.275 97.4316C122.361 97.4316 123.159 96.5064 123.159 95.4695Z" fill="#878788"/>
<path d="M125.091 93.1885H125.618V93.8106C126.017 93.3161 126.528 92.997 127.247 92.997C128.285 92.997 129.035 93.683 129.035 94.9431V97.7346H128.492V94.9591C128.492 94.0179 127.965 93.5075 127.167 93.5075C126.448 93.5075 125.953 93.8744 125.602 94.4646V97.7506H125.075V93.1885H125.091Z" fill="#878788"/>
<path d="M133.187 90.9553H133.714V93.8106C134.113 93.3001 134.624 92.997 135.343 92.997C136.381 92.997 137.131 93.683 137.131 94.9431V97.7346H136.604V94.9591C136.604 94.0179 136.077 93.5075 135.279 93.5075C134.56 93.5075 134.065 93.8903 133.714 94.4646V97.7506H133.187V90.9553Z" fill="#878788"/>
<path d="M138.584 96.6499C138.584 95.964 139.111 95.4855 140.069 95.326L141.698 95.0548V94.6241C141.698 93.8903 141.187 93.4915 140.468 93.4915C139.877 93.4915 139.398 93.7468 139.095 94.1934L138.68 93.8744C139.063 93.348 139.702 92.997 140.484 92.997C141.538 92.997 142.225 93.6191 142.225 94.6241V97.7506H141.698V97.0966C141.314 97.607 140.692 97.8782 140.053 97.8782C139.175 97.8782 138.584 97.3996 138.584 96.6499ZM140.117 97.4156C140.772 97.4156 141.346 97.0966 141.698 96.5064V95.4695L140.181 95.7247C139.462 95.8523 139.127 96.1873 139.127 96.634C139.127 97.0806 139.51 97.4156 140.117 97.4156Z" fill="#878788"/>
<path d="M146.216 97.9261C145.498 97.9261 144.891 97.623 144.46 97.0966V97.7506H143.933V90.9553H144.46V93.8425C144.891 93.3161 145.498 93.013 146.216 93.013C147.638 93.013 148.58 94.1456 148.58 95.4695C148.58 96.7935 147.638 97.9261 146.216 97.9261ZM144.476 94.4486V96.4745C144.859 97.0966 145.498 97.4156 146.185 97.4156C147.27 97.4156 148.021 96.5383 148.021 95.4536C148.021 94.3689 147.27 93.4915 146.185 93.4915C145.482 93.5075 144.843 93.8425 144.476 94.4486Z" fill="#878788"/>
<path d="M149.81 91.3381C149.81 91.1148 150.001 90.9393 150.225 90.9393C150.448 90.9393 150.64 91.1148 150.64 91.3381C150.64 91.5774 150.464 91.7528 150.225 91.7528C149.985 91.7528 149.81 91.5774 149.81 91.3381ZM149.953 93.1885H150.48V97.7506H149.953V93.1885Z" fill="#878788"/>
<path d="M152.524 93.667H151.662V93.1885H152.524V92.0399H153.067V93.1885H154.775V93.667H153.067V96.3149C153.067 97.1444 153.498 97.3518 154.105 97.3518C154.392 97.3518 154.6 97.3199 154.775 97.2561V97.7506C154.568 97.8303 154.344 97.8622 154.057 97.8622C153.131 97.8622 152.524 97.4475 152.524 96.3309V93.667Z" fill="#878788"/>
<path d="M155.781 96.6499C155.781 95.964 156.308 95.4855 157.266 95.326L158.895 95.0548V94.6241C158.895 93.8903 158.384 93.4915 157.665 93.4915C157.075 93.4915 156.596 93.7468 156.292 94.1934L155.877 93.8744C156.26 93.348 156.899 92.997 157.681 92.997C158.735 92.997 159.422 93.6191 159.422 94.6241V97.7506H158.895V97.0966C158.512 97.607 157.889 97.8782 157.25 97.8782C156.372 97.8782 155.781 97.3996 155.781 96.6499ZM157.314 97.4156C157.969 97.4156 158.544 97.0966 158.895 96.5064V95.4695L157.378 95.7247C156.659 95.8523 156.324 96.1873 156.324 96.634C156.324 97.0806 156.707 97.4156 157.314 97.4156Z" fill="#878788"/>
<path d="M161.37 93.667H160.508V93.1885H161.37V92.0399H161.913V93.1885H163.622V93.667H161.913V96.3149C161.913 97.1444 162.344 97.3518 162.951 97.3518C163.238 97.3518 163.446 97.3199 163.622 97.2561V97.7506C163.414 97.8303 163.19 97.8622 162.903 97.8622C161.977 97.8622 161.37 97.4475 161.37 96.3309V93.667Z" fill="#878788"/>
<path d="M74.2342 21.6461H87.1042V25.4586H78.7052V30.563H85.8428V34.3754H78.7052V43.707H74.2183V21.6461H74.2342Z" fill="#253472"/>
<path d="M89.8506 27.8194H93.8585V29.3986C94.8964 28.3298 96.2536 27.5003 98.058 27.5003C98.6009 27.5003 99.064 27.596 99.4472 27.7237V31.9189C98.9362 31.7913 98.4093 31.6956 97.6748 31.6956C95.7267 31.6956 94.4493 32.7643 93.8585 33.7533V43.723H89.8506V27.8194Z" fill="#253472"/>
<path d="M101.092 39.5118C101.092 37.0871 102.96 35.2208 106.393 34.6625L111.183 33.849V33.4343C111.183 31.7594 109.922 30.6906 108.118 30.6906C106.569 30.6906 105.275 31.3446 104.557 32.5888L101.587 30.3556C103.008 28.4095 105.371 27.1972 108.245 27.1972C112.844 27.1972 115.223 29.9409 115.223 33.4343V43.707H111.183V42.2235C110.177 43.4837 108.309 44.3291 106.457 44.3291C103.263 44.3451 101.092 42.5106 101.092 39.5118ZM107.271 41.1229C109.076 41.1229 110.369 40.1817 111.183 38.8897V36.7043L107.431 37.3583C105.722 37.6454 105.068 38.3314 105.068 39.3523C105.068 40.3731 105.914 41.1229 107.271 41.1229Z" fill="#253472"/>
<path d="M119.806 27.8194H123.814V29.0795C124.916 28.0108 126.401 27.1813 128.509 27.1813C131.942 27.1813 134.688 29.5421 134.688 34.2478V43.707H130.632V34.4073C130.632 32.3017 129.467 30.9778 127.503 30.9778C125.475 30.9778 124.405 32.3336 123.814 33.3386V43.707H119.806V27.8194Z" fill="#253472"/>
<path d="M150.416 38.6983L153.61 41.1229C152.125 43.069 149.794 44.3451 146.887 44.3451C141.394 44.3451 138.121 40.4051 138.121 35.7632C138.121 31.1373 141.41 27.1813 146.887 27.1813C149.794 27.1813 152.125 28.4415 153.61 30.4035L150.416 32.8281C149.666 31.7275 148.468 30.9618 146.824 30.9618C144.205 30.9618 142.273 32.9717 142.273 35.7472C142.273 38.5547 144.205 40.5327 146.887 40.5327C148.42 40.5486 149.65 39.7989 150.416 38.6983Z" fill="#253472"/>
<path d="M163.67 44.3451C158.017 44.3451 154.839 40.4051 154.839 35.7632C154.839 31.0575 157.809 27.1813 163.015 27.1813C167.438 27.1813 170.328 30.1483 170.328 34.3116C170.328 35.1889 170.2 36.0503 170.073 36.5767H158.927C159.183 39.1928 161.003 40.7401 163.717 40.7401C165.458 40.7401 166.879 39.9903 167.725 38.8418L170.6 41.1069C169.13 43.1009 166.671 44.3451 163.67 44.3451ZM159.183 33.5619H166.352C166.288 31.9827 165.123 30.5311 163.015 30.5311C161.051 30.5311 159.725 31.4722 159.183 33.5619Z" fill="#253472"/>
<path d="M74.2339 50.4864H80.9882C85.8424 50.4864 88.8444 52.9748 88.8444 57.0743C88.8444 59.7223 87.551 61.7003 85.3155 62.785L92.2615 72.5632H86.8963L81.0202 63.6463H78.7208V72.5632H74.2339V50.4864ZM78.7208 54.2988V59.818H81.2437C83.1439 59.818 84.2457 58.8131 84.2457 57.0105C84.2457 55.3356 83.1439 54.2988 81.2437 54.2988H78.7208Z" fill="#E10E17"/>
<path d="M102.129 73.1853C96.4769 73.1853 93.2993 69.2453 93.2993 64.6034C93.2993 59.8978 96.2693 56.0215 101.475 56.0215C105.898 56.0215 108.788 58.9885 108.788 63.1519C108.788 64.0292 108.66 64.8906 108.533 65.417H97.3871C97.6425 68.033 99.4629 69.5803 102.177 69.5803C103.918 69.5803 105.339 68.8306 106.185 67.6821L109.059 69.9472C107.59 71.9571 105.131 73.1853 102.129 73.1853ZM97.6585 62.4021H104.828C104.764 60.8229 103.599 59.3714 101.475 59.3714C99.5108 59.3714 98.1854 60.3125 97.6585 62.4021ZM99.8301 54.1393L103.119 48.9072H107.479L103.694 54.1393H99.8301Z" fill="#E10E17"/>
<path d="M112.701 56.6596H116.708V57.9198C117.81 56.851 119.295 56.0215 121.403 56.0215C124.836 56.0215 127.582 58.3824 127.582 63.088V72.5473H123.511V63.2476C123.511 61.142 122.345 59.818 120.381 59.818C118.353 59.818 117.283 61.1739 116.692 62.1788V72.5473H112.685L112.701 56.6596Z" fill="#E10E17"/>
<path d="M148.42 64.6034C148.42 69.357 144.891 73.1853 139.702 73.1853C134.512 73.1853 130.983 69.3729 130.983 64.6034C130.983 59.8339 134.512 56.0215 139.702 56.0215C144.891 56.0215 148.42 59.8499 148.42 64.6034ZM144.253 64.6034C144.253 61.8279 142.32 59.818 139.766 59.818C137.115 59.818 135.151 61.8438 135.151 64.6034C135.151 67.363 137.099 69.3889 139.766 69.3889C142.336 69.3889 144.253 67.3471 144.253 64.6034Z" fill="#E10E17"/>
<path d="M153.913 56.6596L158.049 68.017L162.152 56.6596H166.48L160.667 72.5473H155.398L149.618 56.6596H153.913Z" fill="#E10E17"/>
<path d="M168.587 59.5628L171.43 50.4864H175.98L172.324 59.5628H168.587Z" fill="#E10E17"/>
<path fill-rule="evenodd" clip-rule="evenodd" d="M48.3346 34.3754C47.8236 34.3116 47.2966 34.3275 46.7857 34.4233C46.2747 34.503 45.7478 34.6625 45.2687 34.9018C44.7897 35.1251 44.3266 35.4282 43.9275 35.7951C43.5442 36.162 43.2089 36.6086 43.0971 37.151L42.9375 37.135C42.9055 36.5288 43.177 35.9546 43.5442 35.4601C43.9115 34.9816 44.3426 34.5509 44.8376 34.184C45.8436 33.4821 47.105 33.0674 48.3984 33.0674C49.0371 33.0674 49.7078 33.1312 50.3465 33.3226C50.5381 33.3864 50.7297 33.4662 50.9213 33.5459C50.5221 32.6048 50.0431 31.6956 49.4683 30.8501C45.8436 25.4266 39.2968 22.2682 32.766 22.1406C26.2352 21.9971 19.8162 24.6929 14.8502 28.9359L15.2973 28.6967C15.6166 28.4893 15.936 28.3138 16.2873 28.1703L15.2973 28.6967C12.7584 30.3397 11.6886 33.7692 11.0339 36.8319C10.3313 40.102 9.70858 43.4358 9.98003 46.7697C10.2515 50.1035 11.5129 53.4693 14.0358 55.6706C16.6705 57.9676 20.3112 58.7173 23.7921 58.9087C28.8379 59.1959 33.9476 58.4781 38.706 56.8032C42.9694 55.3197 47.105 52.9429 49.6758 49.2422C52.2946 45.4617 52.9173 40.5646 51.7836 36.1141C51.5281 35.9067 51.2886 35.7153 51.0171 35.5558C50.2028 35.0613 49.3725 34.503 48.3346 34.3754ZM36.3428 37.7412C36.1991 37.1191 35.7999 36.6246 35.3368 36.2098C34.8578 35.7951 34.3308 35.4601 33.756 35.2208C33.1971 34.9816 32.5904 34.8061 31.9995 34.7423C31.4087 34.6625 30.802 34.6625 30.2112 34.7582C29.0296 34.9337 28.1034 35.6196 27.1613 36.2258C26.2033 36.8638 25.3889 37.6933 24.5426 38.794L24.367 38.7461C24.2712 38.0442 24.4149 37.3105 24.6863 36.6405C24.9578 35.9546 25.3889 35.3325 25.9318 34.822C26.4747 34.2956 27.1294 33.8809 27.8639 33.6416C28.5984 33.4024 29.3489 33.2907 30.0994 33.2747C31.5844 33.2269 33.0534 33.6576 34.235 34.4233C34.8258 34.8061 35.3528 35.3006 35.7839 35.8429C36.215 36.3853 36.5504 37.0393 36.5504 37.7412H36.3428Z" fill="#253472"/>
<path fill-rule="evenodd" clip-rule="evenodd" d="M26.7779 3.7805C26.0434 4.32285 25.3408 4.8971 24.6063 5.47135L22.4985 7.22601C19.7042 9.58683 17.2611 12.3305 14.7223 14.9465C12.1834 17.5785 9.69242 20.2265 7.21742 22.9223C4.77435 25.634 2.34726 28.3617 0 31.1532L0.175647 31.3127C2.81032 28.7764 5.41306 26.2402 8.07968 23.7517C10.7144 21.2314 13.381 18.7589 16.0635 16.3024C18.7461 13.8459 21.5884 11.5648 24.1432 8.96472C25.4206 7.67265 26.6981 6.38057 27.9276 5.02469C29.1731 3.68477 30.3866 2.31295 31.5203 0.845417L31.3606 0.669952C29.7479 1.62705 28.2469 2.67984 26.7779 3.7805Z" fill="#253472"/>
<path fill-rule="evenodd" clip-rule="evenodd" d="M67.24 33.514C64.733 30.3237 62.0185 27.3568 59.2082 24.4695C56.3979 21.5983 53.3001 18.9982 50.3621 16.2545L41.468 8.08739C38.4821 5.3916 35.5121 2.67985 32.4942 0L32.3345 0.175468C35.0809 3.11054 37.8912 5.99775 40.6537 8.91687L49.0527 17.5785C51.879 20.4498 54.5456 23.4646 57.4996 26.1923C60.4537 28.92 63.5035 31.552 66.7609 33.9766L67.2719 33.53C67.2559 33.5459 67.24 33.53 67.24 33.514Z" fill="#253472"/>
</g>
<defs>
<clipPath id="clip0_72_528">
<rect width="198" height="98" fill="white"/>
</clipPath>
</defs>
</svg>
