<svg width="242" height="88" viewBox="0 0 242 88" fill="none" xmlns="http://www.w3.org/2000/svg">
<mask id="mask0_72_648" style="mask-type:alpha" maskUnits="userSpaceOnUse" x="9" y="36" width="39" height="35">
<path d="M9.0708 36.9547H47.7994V70.7436H9.0708V36.9547Z" fill="#9FE0D0"/>
</mask>
<g mask="url(#mask0_72_648)">
<path fill-rule="evenodd" clip-rule="evenodd" d="M45.1897 44.9543C41.8812 39.9851 35.9055 37.0849 29.9411 36.959C23.9775 36.834 18.1125 39.3008 13.5888 43.1934L13.995 42.9789C14.2821 42.789 14.5869 42.6277 14.9051 42.497L13.9941 42.9789C11.6779 44.4854 10.7055 47.6261 10.0988 50.4359C9.45146 53.4332 8.88103 56.4922 9.12994 59.5469C9.3754 62.6033 10.5284 65.6962 12.8334 67.715C15.2344 69.8163 18.5558 70.5083 21.739 70.6889C26.3474 70.9494 31.0059 70.2895 35.361 68.7613C39.2581 67.3928 43.0307 65.2238 45.3789 61.8236C48.7704 56.9116 48.4973 49.9227 45.1888 44.9543" fill="#DADADA"/>
</g>
<path fill-rule="evenodd" clip-rule="evenodd" d="M39.2282 50.7093C39.204 50.1588 39.4521 49.6205 39.7762 49.1811C40.1046 48.74 40.5039 48.3424 40.9628 48.0159C41.917 47.3531 43.049 46.997 44.2091 46.9948C44.81 46.9868 45.4089 47.0652 45.9878 47.2275C46.5669 47.4029 47.1027 47.7102 47.5435 48.1114C47.9843 48.5126 48.3421 48.9953 48.5763 49.5276C48.8157 50.0546 48.9436 50.6295 48.8875 51.1947L48.744 51.2364C48.0465 50.3872 47.3732 49.7516 46.5997 49.2645C45.8391 48.8017 45.0855 48.2868 44.1451 48.1756C43.6754 48.1171 43.1995 48.1306 42.7337 48.2156C42.2546 48.2934 41.7889 48.4396 41.3509 48.6497C40.9039 48.8601 40.4919 49.1386 40.1297 49.4755C39.7753 49.8167 39.4711 50.2248 39.3777 50.718L39.2282 50.7093ZM33.1938 51.2503C33.0676 50.6859 32.7011 50.2257 32.2793 49.848C31.8485 49.4738 31.3629 49.1686 30.8394 48.9432C30.3268 48.7187 29.7849 48.5687 29.2301 48.4978C28.6904 48.4176 28.1416 48.4205 27.6027 48.5065C26.5223 48.6714 25.6736 49.2949 24.8154 49.8575C23.9442 50.4497 23.1905 51.2077 22.4204 52.2132L22.2528 52.1707C22.1663 51.5221 22.2917 50.8543 22.5484 50.2387C22.8066 49.6078 23.1935 49.0381 23.684 48.5664C24.183 48.0794 24.7839 47.7103 25.4428 47.4862C26.1083 47.2674 26.805 47.1702 27.4826 47.1485C28.8195 47.1057 30.1379 47.4721 31.2629 48.1991C31.798 48.5544 32.2745 48.9915 32.6752 49.4946C33.0667 49.9887 33.3727 50.5991 33.3666 51.2347L33.1938 51.2512V51.2503ZM91.2945 47.31H88.3957V39.2296L88.5366 34.6971H88.489L84.2108 47.31H81.5678L77.3121 34.6962H77.2672L77.4296 39.2296V47.31H74.5066V31.8065H79.1841L81.9671 40.2629L82.9481 43.7638H82.9948L84.0008 40.2863L86.7605 31.8065H91.2954L91.2945 47.31ZM99.9806 44.8553C100.55 44.5193 100.834 44.0608 100.834 43.4816V42.2599L98.3333 42.8243C97.8034 42.9494 97.4093 43.117 97.1526 43.3288C96.8951 43.5407 96.7663 43.8333 96.7663 44.2101C96.7663 44.5861 96.8838 44.8709 97.1172 45.0671C97.3506 45.2625 97.679 45.3606 98.099 45.3606C98.7844 45.3606 99.4127 45.1922 99.9814 44.8553M105.675 45.2669L105.442 47.2162C105.005 47.4359 104.498 47.5461 103.921 47.5461C102.426 47.5461 101.529 46.9583 101.233 45.7835C100.889 46.3635 100.36 46.802 99.6426 47.099C98.9253 47.3959 98.0757 47.5453 97.0939 47.5453C95.9556 47.5453 95.0671 47.2874 94.4284 46.7699C93.7888 46.2532 93.4691 45.51 93.4691 44.5384C93.4691 42.6281 94.9902 41.3908 98.029 40.8273L100.834 40.2872V39.7228C100.834 39.0967 100.659 38.5992 100.309 38.231C99.9581 37.8638 99.4706 37.6788 98.8475 37.6788C98.1301 37.6788 97.5459 37.8351 97.0939 38.1494C96.6418 38.462 96.3298 38.9708 96.1596 39.6759L93.6099 38.5949C93.839 37.6062 94.4431 36.7464 95.2936 36.1984C96.1665 35.6201 97.3047 35.3301 98.7075 35.3301C100.376 35.3301 101.677 35.6948 102.611 36.4224C103.547 37.1509 104.015 38.2276 104.015 39.6524V44.468C104.015 44.7806 104.085 45.0081 104.226 45.1496C104.364 45.2894 104.583 45.3606 104.88 45.3606C105.207 45.3606 105.472 45.3294 105.675 45.2669ZM115.425 38.5601C115.892 38.1607 116.127 37.5616 116.127 36.7628C116.127 35.9639 115.893 35.3691 115.425 34.9775C114.959 34.5868 114.224 34.3906 113.227 34.3906H110.469V39.1593H113.227C114.224 39.1593 114.958 38.9595 115.425 38.5601ZM117.904 33.1107C118.902 33.979 119.399 35.205 119.399 36.7871C119.399 38.3214 118.902 39.5196 117.904 40.3818C116.906 41.2414 115.51 41.6721 113.718 41.6721H110.468V47.31H107.241V31.8065H113.718C115.511 31.8065 116.906 32.2407 117.904 33.1107ZM129.196 35.5888L128.799 38.4064C128.441 38.172 127.95 38.0548 127.327 38.0548C126.563 38.0548 125.904 38.3335 125.351 38.8883C124.798 39.4449 124.52 40.2238 124.52 41.2258V47.31H121.317V35.5645H124.1L124.31 37.8672C124.949 36.1758 126.157 35.3301 127.934 35.3301C128.48 35.3301 128.9 35.4169 129.196 35.5888Z" fill="#28302E"/>
<mask id="mask1_72_648" style="mask-type:alpha" maskUnits="userSpaceOnUse" x="0" y="16" width="242" height="55">
<path d="M0 70.7435H241.967V16.6487H0V70.7435Z" fill="#28302E"/>
</mask>
<g mask="url(#mask1_72_648)">
<path fill-rule="evenodd" clip-rule="evenodd" d="M130.483 47.3108H133.687V35.5654H130.483V47.3108ZM130.108 32.159C130.108 30.9999 130.771 30.4207 132.096 30.4207C133.422 30.4207 134.084 30.9999 134.084 32.159C134.084 33.3026 133.422 33.8739 132.096 33.8739C130.771 33.8739 130.108 33.3026 130.108 32.159ZM153.993 36.4337C154.78 37.1708 155.175 38.2276 155.175 39.6056V47.31H151.971V40.2403C151.971 39.4267 151.792 38.8276 151.433 38.4429C151.075 38.06 150.583 37.8681 149.96 37.8681C149.212 37.8681 148.596 38.1425 148.113 38.6895C147.629 39.2391 147.388 40.0058 147.388 40.9922V47.3108H144.185V40.2403C144.185 39.4267 144.006 38.8276 143.647 38.4429C143.288 38.06 142.79 37.8681 142.15 37.8681C141.45 37.8681 140.845 38.1381 140.338 38.6782C139.831 39.2192 139.578 40.0215 139.578 41.086V47.3117H136.376V35.5636H139.251L139.345 37.6554C139.734 36.8878 140.268 36.3078 140.947 35.917C141.624 35.5254 142.384 35.3292 143.227 35.3292C144.099 35.3292 144.875 35.5332 145.552 35.9396C146.231 36.3477 146.726 36.9347 147.038 37.7022C147.389 36.9592 147.96 36.3434 148.674 35.9396C149.386 35.534 150.192 35.3235 151.011 35.3292C152.213 35.3292 153.207 35.6973 153.993 36.4328M161.172 38.3839C160.712 38.838 160.42 39.5109 160.296 40.4035H165.743C165.618 39.5265 165.321 38.8579 164.854 38.396C164.387 37.9341 163.78 37.7031 163.031 37.7031C162.251 37.7031 161.631 37.9306 161.172 38.3839M168.596 42.6594H160.318C160.647 44.3195 161.62 45.1496 163.24 45.1496C163.911 45.1496 164.465 45.0237 164.901 44.7737C165.325 44.5368 165.65 44.1525 165.812 43.6926L168.433 44.6564C168.077 45.5738 167.41 46.335 166.549 46.8055C165.67 47.2987 164.565 47.5453 163.24 47.5453C161.309 47.5453 159.811 47.0095 158.751 45.9363C157.692 44.8631 157.163 43.3635 157.163 41.4385C157.163 39.5109 157.676 38.0122 158.705 36.939C159.734 35.8667 161.183 35.3309 163.054 35.3309C164.862 35.3309 166.254 35.8545 167.227 36.9034C168.201 37.9541 168.69 39.4484 168.69 41.3908C168.69 41.8293 168.658 42.2521 168.596 42.6585M174.09 38.9005H177.294C178.229 38.9005 178.919 38.7173 179.363 38.3483C179.808 37.981 180.03 37.4122 180.03 36.6464C180.03 35.878 179.808 35.3101 179.363 34.9419C178.918 34.5755 178.229 34.3897 177.294 34.3897H174.09V38.9005ZM176.989 41.3665H174.09V47.31H170.91V31.8065H177.714C179.476 31.8065 180.852 32.2259 181.842 33.0629C182.831 33.9017 183.326 35.08 183.326 36.5986C183.326 37.7101 183.053 38.6426 182.508 39.3946C181.962 40.1456 181.184 40.6857 180.17 41.0148L184.238 47.31H180.614L176.989 41.3665V41.3665ZM193.895 29.8798L191.556 33.8739H189.171L190.808 29.8798H193.895V29.8798ZM188.925 38.3839C188.467 38.838 188.173 39.5109 188.049 40.4044H193.497C193.373 39.5274 193.076 38.8571 192.609 38.396C192.142 37.9341 191.533 37.7031 190.785 37.7031C190.005 37.7031 189.386 37.9297 188.926 38.3839H188.925ZM196.349 42.6594H188.073C188.4 44.3195 189.374 45.1488 190.996 45.1488C191.666 45.1488 192.219 45.0246 192.656 44.7737C193.08 44.5363 193.404 44.1521 193.567 43.6926L196.186 44.6564C195.832 45.5738 195.165 46.3352 194.304 46.8055C193.423 47.2987 192.32 47.5453 190.996 47.5453C189.062 47.5453 187.566 47.0095 186.506 45.9363C185.445 44.8631 184.916 43.3635 184.916 41.4385C184.916 39.5109 185.43 38.0122 186.459 36.939C187.488 35.8667 188.938 35.3301 190.808 35.3301C192.616 35.3301 194.008 35.8554 194.983 36.9034C195.956 37.9541 196.443 39.4484 196.443 41.3908C196.443 41.8293 196.412 42.2521 196.349 42.6585V42.6594ZM208.45 36.4337C209.222 37.1708 209.608 38.2276 209.608 39.6056V47.31H206.404V40.545C206.404 38.7598 205.71 37.8672 204.322 37.8672C203.574 37.8672 202.939 38.1338 202.417 38.6661C201.895 39.1983 201.634 40.0119 201.634 41.1086V47.31H198.43V35.5645H201.307L201.4 37.6562C201.789 36.8887 202.328 36.3086 203.014 35.9179C203.699 35.5263 204.494 35.3301 205.399 35.3301C206.661 35.3301 207.677 35.6982 208.45 36.4337ZM215.511 38.6539C215.035 39.2721 214.797 40.2003 214.797 41.4377C214.797 42.675 215.035 43.6032 215.511 44.2214C215.987 44.8405 216.676 45.1496 217.58 45.1496C218.484 45.1496 219.173 44.8405 219.65 44.2214C220.125 43.6032 220.363 42.6758 220.363 41.4377C220.363 40.2003 220.125 39.2721 219.65 38.6539C219.174 38.0357 218.484 37.7266 217.58 37.7266C216.676 37.7266 215.987 38.0357 215.511 38.6539ZM221.987 36.9512C223.041 38.0313 223.566 39.5274 223.566 41.4377C223.566 43.3479 223.041 44.844 221.987 45.9241C220.936 47.0043 219.466 47.5453 217.58 47.5453C215.694 47.5453 214.224 47.0043 213.173 45.9241C212.121 44.844 211.594 43.3479 211.594 41.4377C211.594 39.5274 212.121 38.0313 213.173 36.9512C214.224 35.8701 215.694 35.3301 217.58 35.3301C219.466 35.3301 220.936 35.8701 221.987 36.9512M236.45 35.5654L232.007 47.31H228.313L223.871 35.5654H227.307L230.183 45.055L233.129 35.5645L236.45 35.5654ZM241.383 31.7709C241.772 32.2806 241.966 32.9422 241.966 33.7567C241.966 34.7118 241.713 35.5845 241.207 36.3755C240.7 37.1665 239.956 37.7804 238.974 38.2189L237.501 37.0918C238.186 36.8418 238.768 36.5014 239.243 36.0698C239.718 35.6392 240.035 35.1581 240.189 34.6259L240.096 34.5547C239.909 34.711 239.675 34.79 239.394 34.79C238.943 34.79 238.545 34.6337 238.202 34.3194C237.859 34.0068 237.688 33.5605 237.688 32.9813C237.688 32.3857 237.878 31.9081 238.261 31.5486C238.642 31.1883 239.129 31.0085 239.722 31.0085C240.439 31.0085 240.992 31.2621 241.383 31.7709M80.4261 60.4334H79.7468V56.7058L79.828 55.1429H79.8185L77.8782 60.4334H77.2697L75.3303 55.1429H75.3216L75.402 56.7058V60.4334H74.7227V54.5055H75.8221L77.1185 58.1064L77.5653 59.5885H77.5826L78.0389 58.1159L79.3267 54.5055H80.4261V60.4334ZM82.1348 60.4334H82.8496V55.9426H82.1348V60.4334ZM82.1028 54.9319C82.0532 54.8802 82.0145 54.8189 81.9893 54.7517C81.964 54.6845 81.9526 54.6129 81.9559 54.5411C81.9559 54.3796 82.0052 54.2494 82.1028 54.1504C82.1542 54.1005 82.2153 54.0617 82.2821 54.0363C82.349 54.0109 82.4203 53.9995 82.4917 54.0028C82.6525 54.0028 82.7821 54.0523 82.8807 54.1504C82.9304 54.202 82.9691 54.2633 82.9944 54.3305C83.0197 54.3977 83.031 54.4694 83.0276 54.5411C83.031 54.6129 83.0197 54.6846 82.9945 54.7518C82.9692 54.819 82.9305 54.8803 82.8807 54.9319C82.8293 54.9818 82.7683 55.0207 82.7014 55.0461C82.6345 55.0715 82.5632 55.0828 82.4917 55.0795C82.4203 55.0829 82.349 55.0716 82.2821 55.0462C82.2152 55.0208 82.1542 54.9819 82.1028 54.9319V54.9319ZM85.3033 56.8317C85.0613 57.0653 84.9143 57.3944 84.8608 57.8189H87.5694C87.5219 57.4004 87.3845 57.0722 87.158 56.8352C86.9325 56.5999 86.6308 56.4809 86.2557 56.4809C85.8625 56.4809 85.5453 56.5981 85.3033 56.8317ZM88.222 58.4571H84.8521C84.8936 58.9121 85.044 59.2647 85.3033 59.5165C85.5626 59.7683 85.8979 59.8933 86.3093 59.8933C86.6377 59.8933 86.9091 59.8369 87.1278 59.724C87.3447 59.6102 87.4925 59.4444 87.5694 59.2291L88.1692 59.5443C88.0025 59.8485 87.7547 60.1002 87.4536 60.271C87.1554 60.4386 86.7743 60.5228 86.3093 60.5228C85.6352 60.5228 85.1071 60.3162 84.7225 59.9029C84.3379 59.4904 84.146 58.9191 84.146 58.188C84.146 57.4569 84.3284 56.8855 84.6948 56.4722C85.0621 56.0589 85.5824 55.8531 86.2557 55.8531C86.6732 55.8531 87.0336 55.9452 87.3369 56.131C87.642 56.3168 87.8711 56.5677 88.0258 56.8864C88.1813 57.2025 88.2591 57.5585 88.2591 57.9544C88.2591 58.122 88.2462 58.2896 88.222 58.4571M93.3982 55.9426V60.4334H92.7724L92.7275 59.7509C92.4293 60.2658 91.8969 60.5228 91.1268 60.5228C90.6446 60.5228 90.2504 60.3882 89.9428 60.1191C89.6368 59.8499 89.4821 59.4357 89.4821 58.8791V55.9426H90.1977V58.6907C90.1977 59.1283 90.2876 59.4375 90.4656 59.6198C90.6446 59.803 90.9073 59.8942 91.2522 59.8942C91.6644 59.8942 92.0049 59.7683 92.2763 59.5173C92.5477 59.2655 92.6825 58.8887 92.6825 58.3859V55.9426H93.3982V55.9426ZM97.7343 60.4334L96.501 58.6994L95.2305 60.4334H94.4007L96.1163 58.1697L94.507 55.9426H95.4016L96.5813 57.6036L97.7429 55.9426H98.5839L96.9659 58.1428L98.6107 60.4334H97.7343ZM105.445 56.1622C105.752 56.3689 105.992 56.6641 106.165 57.047L105.485 57.37C105.295 56.777 104.897 56.4809 104.296 56.4809C103.849 56.4809 103.499 56.6329 103.246 56.935C102.993 57.2372 102.866 57.6548 102.866 58.188C102.866 58.7211 102.993 59.1388 103.247 59.4409C103.499 59.7431 103.849 59.8942 104.296 59.8942C104.642 59.8942 104.921 59.8152 105.133 59.6563C105.344 59.4982 105.482 59.269 105.547 58.9694L106.209 59.2039C106.054 59.6215 105.816 59.9471 105.495 60.1764C105.172 60.4073 104.779 60.5228 104.314 60.5228C103.64 60.5228 103.112 60.3162 102.727 59.9029C102.343 59.4895 102.151 58.9182 102.151 58.188C102.151 57.4569 102.343 56.8855 102.727 56.4722C103.112 56.0589 103.641 55.8523 104.314 55.8523C104.761 55.8523 105.138 55.9565 105.445 56.1622ZM110.805 56.2925C111.132 56.586 111.298 57.008 111.298 57.5585V60.4334H110.581V57.8111C110.581 57.3423 110.482 57.0054 110.282 56.7952C110.081 56.5868 109.815 56.4809 109.481 56.4809C109.249 56.4809 109.026 56.5347 108.815 56.6424C108.595 56.7586 108.414 56.9385 108.297 57.159C108.163 57.3961 108.095 57.6939 108.095 58.0534V60.4334H107.381V53.876H108.095V56.6155C108.245 56.3585 108.445 56.1666 108.699 56.0415C108.953 55.9148 109.237 55.8523 109.553 55.8523C110.06 55.8523 110.476 55.9999 110.805 56.2925M113.705 56.8317C113.464 57.0653 113.317 57.3944 113.263 57.8189H115.972C115.925 57.4004 115.787 57.0722 115.56 56.8352C115.334 56.5999 115.033 56.4809 114.658 56.4809C114.265 56.4809 113.947 56.5981 113.705 56.8317M116.625 58.4571H113.254C113.296 58.9121 113.446 59.2647 113.705 59.5165C113.965 59.7683 114.3 59.8933 114.711 59.8933C115.04 59.8933 115.312 59.8369 115.529 59.724C115.748 59.6102 115.895 59.4444 115.972 59.2291L116.571 59.5443C116.404 59.8484 116.157 60.0999 115.856 60.271C115.558 60.4386 115.176 60.5228 114.711 60.5228C114.037 60.5228 113.509 60.3162 113.125 59.9029C112.741 59.4904 112.548 58.9191 112.548 58.188C112.548 57.4569 112.731 56.8855 113.098 56.4722C113.464 56.0589 113.985 55.8531 114.658 55.8531C115.074 55.8531 115.436 55.9452 115.74 56.131C116.043 56.3168 116.273 56.5677 116.428 56.8864C116.584 57.2025 116.66 57.5585 116.66 57.9544C116.66 58.122 116.648 58.2896 116.625 58.4571M117.609 59.8855L119.951 57.1278L120.513 56.5434L119.717 56.5617H117.634V55.9426H121.309V56.4905L118.967 59.2473L118.414 59.8317L119.28 59.8134H121.38V60.4334H117.609V59.8855ZM131.605 56.0363C131.863 56.1596 132.074 56.3498 132.234 56.6068C132.396 56.8647 132.477 57.1816 132.477 57.5593V60.4334H131.759V57.6305C131.759 57.2424 131.664 56.9533 131.47 56.7648C131.276 56.5755 131.021 56.4809 130.705 56.4809C130.468 56.4809 130.248 56.5399 130.048 56.6563C129.843 56.7788 129.677 56.9562 129.567 57.1686C129.438 57.4163 129.375 57.6926 129.382 57.9718V60.4334H128.667V57.6305C128.667 57.2424 128.571 56.9533 128.377 56.7648C128.183 56.5755 127.929 56.4809 127.613 56.4809C127.381 56.4816 127.154 56.5454 126.956 56.6656C126.757 56.7858 126.595 56.9578 126.486 57.1634C126.355 57.397 126.289 57.6878 126.289 58.0352V60.4334H125.575V55.9426H126.2L126.244 56.6433C126.388 56.3908 126.601 56.1849 126.857 56.0502C127.11 55.9182 127.383 55.8523 127.675 55.8523C128.002 55.8523 128.306 55.9269 128.583 56.078C128.857 56.2241 129.077 56.4532 129.213 56.7327C129.345 56.4453 129.559 56.2265 129.856 56.0771C130.138 55.9311 130.451 55.8541 130.768 55.8523C131.066 55.8523 131.346 55.9148 131.605 56.0363M134.828 56.9307C134.571 57.2354 134.443 57.6548 134.443 58.188C134.443 58.7202 134.571 59.1405 134.828 59.4453C135.083 59.75 135.437 59.9037 135.891 59.9037C136.344 59.9037 136.699 59.75 136.955 59.4453C137.211 59.1405 137.339 58.7202 137.339 58.188C137.339 57.6548 137.211 57.2354 136.955 56.9307C136.699 56.625 136.344 56.4722 135.892 56.4722C135.437 56.4722 135.083 56.625 134.828 56.9307ZM137.478 56.4722C137.863 56.8855 138.054 57.4577 138.054 58.188C138.054 58.9182 137.863 59.4904 137.478 59.9037C137.093 60.3162 136.565 60.5228 135.891 60.5228C135.217 60.5228 134.689 60.3162 134.305 59.9037C133.92 59.4896 133.727 58.9182 133.727 58.188C133.727 57.4577 133.92 56.8855 134.305 56.4722C134.689 56.0589 135.218 55.8523 135.891 55.8523C136.565 55.8523 137.093 56.0589 137.478 56.4722ZM139.351 60.4334H140.066V55.9426H139.351V60.4334ZM139.319 54.9319C139.27 54.8803 139.231 54.819 139.205 54.7518C139.18 54.6846 139.168 54.6129 139.172 54.5411C139.168 54.4694 139.18 54.3978 139.205 54.3306C139.23 54.2634 139.269 54.2021 139.319 54.1504C139.37 54.1006 139.431 54.0618 139.498 54.0364C139.565 54.0111 139.636 53.9996 139.707 54.0028C139.869 54.0028 139.999 54.0523 140.097 54.1504C140.196 54.2494 140.244 54.3796 140.244 54.5411C140.247 54.6129 140.236 54.6845 140.211 54.7517C140.186 54.8189 140.147 54.8802 140.097 54.9319C140.046 54.9817 139.985 55.0204 139.918 55.0458C139.851 55.0712 139.78 55.0826 139.708 55.0795C139.637 55.0828 139.566 55.0715 139.499 55.0461C139.432 55.0207 139.371 54.9818 139.319 54.9319V54.9319ZM142.489 59.5981C142.607 59.7587 142.669 59.9697 142.669 60.2267C142.669 60.5428 142.586 60.838 142.426 61.1063C142.266 61.3755 142.02 61.5891 141.693 61.7445L141.318 61.3937C141.55 61.3156 141.744 61.194 141.898 61.0264C142.054 60.8589 142.152 60.6748 142.194 60.4777L142.159 60.4603C142.104 60.502 142.02 60.5228 141.908 60.5228C141.844 60.5224 141.781 60.5092 141.723 60.4838C141.665 60.4584 141.612 60.4215 141.568 60.3752C141.467 60.2762 141.416 60.1373 141.416 59.9567C141.416 59.7952 141.472 59.6545 141.586 59.5347C141.638 59.4774 141.701 59.4317 141.772 59.4007C141.843 59.3698 141.92 59.3542 141.997 59.355C142.093 59.3515 142.187 59.3719 142.273 59.4144C142.359 59.4568 142.433 59.5199 142.489 59.5981M152.918 56.0363C153.177 56.1596 153.387 56.3498 153.547 56.6068C153.709 56.8647 153.789 57.1816 153.789 57.5593V60.4334H153.074V57.6305C153.074 57.2424 152.978 56.9533 152.783 56.7648C152.59 56.5755 152.334 56.4809 152.019 56.4809C151.781 56.4809 151.561 56.5399 151.362 56.6563C151.157 56.7786 150.99 56.956 150.879 57.1686C150.752 57.4166 150.689 57.6928 150.696 57.9718V60.4334H149.98V57.6305C149.98 57.2424 149.884 56.9533 149.69 56.7648C149.496 56.5755 149.241 56.4809 148.925 56.4809C148.694 56.482 148.467 56.5461 148.268 56.6662C148.07 56.7864 147.908 56.9582 147.799 57.1634C147.668 57.397 147.602 57.6878 147.602 58.0352V60.4334H146.887V55.9426H147.514L147.557 56.6433C147.712 56.3802 147.916 56.1822 148.171 56.0502C148.423 55.9182 148.696 55.8523 148.987 55.8523C149.316 55.8523 149.618 55.9269 149.897 56.078C150.172 56.2265 150.382 56.4453 150.527 56.7327C150.656 56.4453 150.871 56.2265 151.17 56.0771C151.452 55.9311 151.764 55.8541 152.081 55.8523C152.38 55.8523 152.659 55.9148 152.917 56.0363M155.318 60.4334H156.033V55.9426H155.318V60.4334ZM155.285 54.9319C155.236 54.8802 155.197 54.8188 155.172 54.7516C155.147 54.6844 155.136 54.6128 155.139 54.5411C155.139 54.3796 155.188 54.2494 155.286 54.1504C155.338 54.1007 155.399 54.062 155.466 54.0366C155.532 54.0112 155.604 53.9997 155.675 54.0028C155.836 54.0028 155.966 54.0523 156.064 54.1504C156.163 54.2494 156.211 54.3796 156.211 54.5411C156.214 54.6129 156.203 54.6845 156.178 54.7517C156.152 54.8189 156.114 54.8802 156.064 54.9319C156.013 54.9817 155.952 55.0206 155.885 55.046C155.818 55.0713 155.747 55.0827 155.675 55.0795C155.604 55.0826 155.532 55.0712 155.466 55.0458C155.399 55.0204 155.338 54.9817 155.286 54.9319H155.285ZM158.488 56.8317C158.246 57.0653 158.099 57.3944 158.044 57.8189H160.754C160.706 57.4004 160.569 57.0722 160.341 56.8352C160.116 56.5999 159.815 56.4809 159.439 56.4809C159.046 56.4809 158.73 56.5981 158.488 56.8317M161.406 58.4571H158.036C158.077 58.9121 158.228 59.2647 158.488 59.5165C158.746 59.7683 159.081 59.8933 159.493 59.8933C159.821 59.8933 160.093 59.8369 160.311 59.724C160.517 59.6231 160.676 59.4455 160.754 59.2291L161.353 59.5443C161.186 59.8485 160.939 60.1001 160.638 60.271C160.34 60.4386 159.958 60.5228 159.493 60.5228C158.819 60.5228 158.29 60.3162 157.906 59.9029C157.521 59.4904 157.329 58.9191 157.329 58.188C157.329 57.4569 157.513 56.8855 157.879 56.4722C158.246 56.0589 158.767 55.8531 159.439 55.8531C159.857 55.8531 160.217 55.9452 160.521 56.131C160.825 56.3168 161.054 56.5677 161.209 56.8864C161.365 57.2025 161.443 57.5585 161.443 57.9544C161.443 58.122 161.43 58.2896 161.406 58.4571M166.582 55.9426V60.4334H165.956L165.913 59.7509C165.614 60.2658 165.081 60.5228 164.312 60.5228C163.829 60.5228 163.434 60.3882 163.128 60.1191C162.819 59.8499 162.666 59.4357 162.666 58.8791V55.9426H163.381V58.6907C163.381 59.1283 163.471 59.4375 163.65 59.6198C163.829 59.803 164.091 59.8942 164.436 59.8942C164.849 59.8942 165.188 59.7683 165.461 59.5173C165.732 59.2655 165.868 58.8887 165.868 58.3859V55.9426H166.582V55.9426ZM170.919 60.4334L169.683 58.6994L168.416 60.4334H167.583L169.301 58.1697L167.691 55.9426H168.585L169.766 57.6036L170.928 55.9426H171.768L170.149 58.1428L171.795 60.4334H170.919ZM178.758 59.4314C179.009 59.1223 179.134 58.709 179.134 58.188C179.134 57.667 179.009 57.252 178.758 56.9437C178.508 56.6355 178.165 56.4809 177.73 56.4809C177.3 56.4809 176.961 56.6311 176.707 56.9307C176.453 57.2302 176.326 57.6305 176.326 58.1333V58.2418C176.326 58.7454 176.453 59.1466 176.707 59.4453C176.961 59.7448 177.3 59.8942 177.73 59.8942C178.165 59.8942 178.508 59.7405 178.758 59.4314ZM179.299 56.4766C179.665 56.8933 179.849 57.4629 179.849 58.188C179.849 58.913 179.665 59.4817 179.299 59.8985C178.933 60.3153 178.437 60.5228 177.81 60.5228C177.484 60.5228 177.19 60.4508 176.93 60.3084C176.681 60.1741 176.473 59.9753 176.327 59.7327V62.3202H175.612V55.9417H176.237L176.281 56.7232C176.414 56.4601 176.614 56.2499 176.886 56.0893C177.157 55.9321 177.465 55.8523 177.81 55.8523C178.437 55.8523 178.933 56.0606 179.299 56.4774M181.976 56.9307C181.72 57.2354 181.592 57.6548 181.592 58.188C181.592 58.7202 181.72 59.1405 181.976 59.4453C182.233 59.75 182.587 59.9037 183.041 59.9037C183.493 59.9037 183.847 59.75 184.104 59.4453C184.361 59.1405 184.489 58.7202 184.489 58.188C184.489 57.6548 184.361 57.2354 184.104 56.9307C183.847 56.625 183.493 56.4722 183.041 56.4722C182.587 56.4722 182.233 56.625 181.976 56.9307ZM184.628 56.4722C185.012 56.8855 185.203 57.4577 185.203 58.188C185.203 58.9182 185.012 59.4904 184.628 59.9037C184.242 60.3162 183.714 60.5228 183.041 60.5228C182.367 60.5228 181.837 60.3162 181.453 59.9037C181.07 59.4896 180.876 58.9182 180.876 58.188C180.876 57.4577 181.07 56.8855 181.453 56.4722C181.837 56.0589 182.367 55.8523 183.041 55.8523C183.714 55.8523 184.242 56.0589 184.628 56.4722ZM190.371 55.9426V60.4334H189.746L189.701 59.7509C189.403 60.2658 188.871 60.5228 188.101 60.5228C187.618 60.5228 187.224 60.3882 186.916 60.1191C186.61 59.8499 186.456 59.4357 186.456 58.8791V55.9426H187.171V58.6907C187.171 59.1283 187.26 59.4375 187.439 59.6198C187.618 59.803 187.88 59.8942 188.226 59.8942C188.638 59.8942 188.979 59.7683 189.249 59.5173C189.521 59.2655 189.656 58.8887 189.656 58.3859V55.9426H190.371V55.9426ZM194.546 55.9426L194.404 56.6433C194.261 56.5651 194.073 56.5261 193.84 56.5261C193.65 56.5261 193.464 56.5816 193.281 56.6928C193.1 56.803 192.951 56.9706 192.835 57.1955C192.718 57.4195 192.661 57.6904 192.661 58.0082V60.4334H191.946V55.9426H192.526L192.625 56.6789C192.875 56.1275 193.351 55.8523 194.055 55.8523C194.269 55.8523 194.432 55.8826 194.546 55.9426M198.936 59.2299C198.936 59.4574 198.971 59.6146 199.04 59.7014C199.108 59.7882 199.233 59.8317 199.419 59.8317C199.545 59.8317 199.653 59.823 199.745 59.8047C199.838 59.7865 199.946 59.7535 200.072 59.7058L199.955 60.3978C199.745 60.4833 199.52 60.5259 199.294 60.5228C198.93 60.5228 198.66 60.4238 198.485 60.2276C198.309 60.0296 198.221 59.7266 198.221 59.3185V53.876H198.936V59.2291V59.2299ZM203.106 59.625C203.379 59.4444 203.513 59.2108 203.513 58.9243V58.3043L202.513 58.4927C202.113 58.5648 201.815 58.6681 201.618 58.8036C201.422 58.9373 201.324 59.1101 201.324 59.3194C201.324 59.506 201.395 59.6467 201.538 59.7448C201.68 59.8438 201.88 59.8942 202.137 59.8942C202.513 59.8942 202.835 59.8047 203.106 59.625M204.926 59.8681L204.882 60.4334C204.714 60.4933 204.536 60.5228 204.345 60.5228C204.111 60.5228 203.93 60.4716 203.795 60.37C203.661 60.2693 203.576 60.0982 203.54 59.8577C203.391 60.0776 203.181 60.2483 202.936 60.3483C202.673 60.4643 202.388 60.5235 202.101 60.522C201.66 60.522 201.297 60.4195 201.01 60.2128C200.724 60.0062 200.582 59.7084 200.582 59.3185C200.582 58.9781 200.73 58.6829 201.028 58.4346C201.326 58.1862 201.758 58.0143 202.324 57.9179L203.513 57.7208V57.469C203.513 57.1695 203.42 56.9307 203.236 56.7501C203.052 56.5703 202.795 56.4809 202.467 56.4809C202.169 56.4809 201.911 56.553 201.694 56.6962C201.476 56.8404 201.309 57.0522 201.189 57.3344L200.662 56.948C200.781 56.6129 201.003 56.3463 201.328 56.1492C201.653 55.9512 202.033 55.8523 202.467 55.8523C202.997 55.8523 203.424 55.9816 203.746 56.2386C204.067 56.4957 204.228 56.8768 204.228 57.3796V59.5885C204.228 59.6971 204.255 59.7778 204.309 59.8317C204.363 59.8855 204.449 59.9115 204.569 59.9115C204.687 59.9115 204.806 59.8977 204.926 59.8681M211.774 59.4314C212.025 59.1223 212.149 58.709 212.149 58.188C212.149 57.667 212.025 57.252 211.774 56.9437C211.524 56.6355 211.18 56.4809 210.746 56.4809C210.316 56.4809 209.976 56.6311 209.722 56.9307C209.468 57.2302 209.342 57.6305 209.342 58.1333V58.2418C209.342 58.7454 209.468 59.1466 209.722 59.4453C209.976 59.7448 210.316 59.8942 210.746 59.8942C211.18 59.8942 211.524 59.7405 211.774 59.4314ZM212.314 56.4766C212.681 56.8933 212.864 57.4629 212.864 58.188C212.864 58.913 212.681 59.4817 212.314 59.8985C211.948 60.3153 211.453 60.5228 210.826 60.5228C210.499 60.5228 210.206 60.4508 209.945 60.3084C209.697 60.174 209.488 59.9752 209.342 59.7327V62.3202H208.627V55.9417H209.252L209.297 56.7232C209.429 56.4601 209.63 56.2499 209.901 56.0893C210.173 55.9321 210.48 55.8523 210.826 55.8523C211.453 55.8523 211.948 56.0606 212.314 56.4774M214.849 59.2299C214.849 59.4574 214.884 59.6146 214.952 59.7014C215.021 59.7882 215.147 59.8317 215.332 59.8317C215.457 59.8317 215.565 59.823 215.657 59.8047C215.751 59.7865 215.859 59.7535 215.985 59.7058L215.867 60.3978C215.658 60.4833 215.433 60.5259 215.206 60.5228C214.843 60.5228 214.573 60.4238 214.397 60.2276C214.222 60.0296 214.135 59.7266 214.135 59.3185V53.876H214.849V59.2291V59.2299ZM219.019 59.625C219.291 59.4444 219.426 59.2108 219.426 58.9243V58.3043L218.425 58.4927C218.026 58.5648 217.727 58.6681 217.53 58.8036C217.334 58.9373 217.236 59.1101 217.236 59.3194C217.236 59.506 217.307 59.6467 217.451 59.7448C217.593 59.8438 217.792 59.8942 218.049 59.8942C218.425 59.8942 218.747 59.8047 219.019 59.625M220.839 59.8681L220.794 60.4334C220.627 60.4933 220.448 60.5228 220.258 60.5228C220.025 60.5228 219.842 60.4716 219.707 60.37C219.574 60.2693 219.489 60.0982 219.453 59.8577C219.304 60.0777 219.094 60.2484 218.848 60.3483C218.585 60.4643 218.301 60.5235 218.013 60.522C217.573 60.522 217.21 60.4195 216.923 60.2128C216.638 60.0062 216.494 59.7084 216.494 59.3185C216.494 58.9781 216.643 58.6829 216.941 58.4346C217.239 58.1862 217.67 58.0143 218.237 57.9179L219.426 57.7208V57.469C219.426 57.1695 219.333 56.9307 219.149 56.7501C218.964 56.5703 218.708 56.4809 218.38 56.4809C218.082 56.4809 217.824 56.553 217.607 56.6962C217.389 56.8404 217.221 57.0522 217.102 57.3344L216.574 56.948C216.694 56.6129 216.916 56.3463 217.24 56.1492C217.565 55.9512 217.946 55.8523 218.38 55.8523C218.91 55.8523 219.337 55.9816 219.659 56.2386C219.981 56.4957 220.141 56.8768 220.141 57.3796V59.5885C220.141 59.6971 220.167 59.7778 220.222 59.8317C220.275 59.8855 220.362 59.9115 220.481 59.9115C220.599 59.9115 220.72 59.8977 220.839 59.8681M225.211 56.2925C225.538 56.586 225.702 57.008 225.702 57.5585V60.4334H224.987V57.8111C224.987 57.3423 224.888 57.0054 224.688 56.7952C224.488 56.5868 224.222 56.4809 223.887 56.4809C223.649 56.4809 223.426 56.5339 223.217 56.6389C223.009 56.7431 222.837 56.9133 222.703 57.1512C222.569 57.3874 222.502 57.6844 222.502 58.0438V60.4334H221.787V55.9426H222.413L222.458 56.6424C222.606 56.3732 222.812 56.1744 223.075 56.045C223.351 55.9132 223.654 55.8473 223.96 55.8523C224.466 55.8523 224.883 55.9999 225.211 56.2925M229.413 55.1967H228.833L227.955 53.6971H228.733L229.413 55.1967ZM228.112 56.8317C227.872 57.0661 227.723 57.3943 227.669 57.8198H230.379C230.331 57.3996 230.193 57.0731 229.967 56.836C229.74 56.5999 229.439 56.48 229.065 56.48C228.671 56.48 228.354 56.5981 228.112 56.8317ZM231.031 58.4571H227.661C227.702 58.913 227.853 59.2655 228.112 59.5165C228.371 59.7683 228.706 59.8942 229.118 59.8942C229.446 59.8942 229.718 59.8377 229.935 59.7231C230.154 59.6102 230.301 59.4453 230.379 59.2282L230.978 59.5443C230.811 59.8485 230.563 60.1002 230.262 60.271C229.964 60.4386 229.583 60.5228 229.118 60.5228C228.444 60.5228 227.915 60.3162 227.531 59.9037C227.147 59.4896 226.955 58.9191 226.955 58.188C226.955 57.4569 227.138 56.8855 227.504 56.4722C227.872 56.0589 228.391 55.8523 229.065 55.8523C229.482 55.8523 229.842 55.9452 230.146 56.131C230.451 56.3159 230.68 56.5677 230.834 56.8855C230.989 57.2033 231.068 57.5585 231.068 57.9544C231.068 58.122 231.055 58.2896 231.031 58.458V58.4571ZM234.937 60.1191C234.64 60.3882 234.255 60.5228 233.784 60.5228C233.421 60.5228 233.124 60.4238 232.895 60.2276C232.666 60.0296 232.548 59.7266 232.541 59.3194V56.5617H231.648V55.9426H232.541V54.8641L233.257 54.667V55.9426H234.911V56.5617H233.257V59.1935C233.257 59.4088 233.318 59.5729 233.44 59.6832C233.563 59.7943 233.725 59.8482 233.928 59.8482C234.213 59.8482 234.467 59.7388 234.688 59.5165L234.937 60.1191V60.1191ZM236.739 56.8317C236.497 57.0653 236.35 57.3944 236.296 57.8189H239.005C238.959 57.4004 238.821 57.0722 238.594 56.8352C238.368 56.5999 238.068 56.4809 237.691 56.4809C237.298 56.4809 236.981 56.5981 236.739 56.8317ZM239.659 58.4571H236.288C236.329 58.9121 236.481 59.2647 236.739 59.5165C236.998 59.7683 237.334 59.8933 237.745 59.8933C238.074 59.8933 238.345 59.8369 238.564 59.724C238.781 59.6102 238.928 59.4444 239.005 59.2291L239.605 59.5443C239.439 59.8485 239.191 60.1001 238.89 60.271C238.592 60.4386 238.21 60.5228 237.745 60.5228C237.072 60.5228 236.543 60.3162 236.158 59.9029C235.774 59.4904 235.581 58.9191 235.581 58.188C235.581 57.4569 235.765 56.8855 236.131 56.4722C236.498 56.0589 237.018 55.8531 237.691 55.8531C238.109 55.8531 238.469 55.9452 238.773 56.131C239.077 56.3168 239.307 56.5677 239.462 56.8864C239.617 57.2025 239.695 57.5585 239.695 57.9544C239.695 58.122 239.682 58.2896 239.659 58.4571M24.461 20.1045C23.7869 20.6029 23.1421 21.1343 22.4818 21.65L20.5562 23.259C18.0022 25.4202 15.7749 27.9339 13.4517 30.3347C11.1379 32.7459 8.85257 35.1846 6.59623 37.6501C4.3681 40.1422 2.14689 42.6359 0 45.1956L0.158164 45.345C2.55656 43.024 4.93939 40.6927 7.37063 38.4134C9.77369 36.1081 12.2039 33.8315 14.6609 31.5842C17.1077 29.3267 19.7066 27.2384 22.0306 24.8567C23.1974 23.6697 24.3616 22.4784 25.4843 21.2402C26.6157 20.009 27.7237 18.7534 28.7634 17.4119L28.62 17.2478C27.1688 18.123 25.7981 19.0938 24.461 20.1045M61.3937 47.3881L61.3963 47.3855C59.1033 44.4637 56.6211 41.7364 54.0611 39.0898C51.4959 36.4476 48.6714 34.0736 45.9861 31.5556L37.8704 24.0656C35.1393 21.5936 32.4297 19.1007 29.6813 16.6487L29.5309 16.8049C32.0443 19.4993 34.5974 22.1537 37.1306 24.828L44.8028 32.7781C47.3784 35.4065 49.8183 38.1789 52.5149 40.6848C55.2184 43.1847 57.9988 45.6037 60.9676 47.8283L61.4274 47.4202C61.4161 47.4098 61.404 47.3994 61.3937 47.3881" fill="#28302E"/>
</g>
</svg>
