<svg width="163" height="64" viewBox="0 0 163 64" fill="none" xmlns="http://www.w3.org/2000/svg">
<path d="M2.94 26V6.4H5.236L18.2 22.5H16.996V6.4H19.796V26H17.5L4.536 9.9H5.74V26H2.94ZM31.6267 26.168C30.1333 26.168 28.808 25.8413 27.6507 25.188C26.4933 24.5347 25.5787 23.6387 24.9067 22.5C24.2347 21.3427 23.8987 20.036 23.8987 18.58C23.8987 17.1053 24.2347 15.7987 24.9067 14.66C25.5787 13.5213 26.4933 12.6347 27.6507 12C28.808 11.3467 30.1333 11.02 31.6267 11.02C33.1013 11.02 34.4173 11.3467 35.5747 12C36.7507 12.6347 37.6653 13.5213 38.3187 14.66C38.9907 15.78 39.3267 17.0867 39.3267 18.58C39.3267 20.0547 38.9907 21.3613 38.3187 22.5C37.6653 23.6387 36.7507 24.5347 35.5747 25.188C34.4173 25.8413 33.1013 26.168 31.6267 26.168ZM31.6267 23.816C32.5787 23.816 33.428 23.6013 34.1747 23.172C34.94 22.7427 35.5373 22.136 35.9667 21.352C36.396 20.5493 36.6107 19.6253 36.6107 18.58C36.6107 17.516 36.396 16.6013 35.9667 15.836C35.5373 15.052 34.94 14.4453 34.1747 14.016C33.428 13.5867 32.5787 13.372 31.6267 13.372C30.6747 13.372 29.8253 13.5867 29.0787 14.016C28.332 14.4453 27.7347 15.052 27.2867 15.836C26.8387 16.6013 26.6147 17.516 26.6147 18.58C26.6147 19.6253 26.8387 20.5493 27.2867 21.352C27.7347 22.136 28.332 22.7427 29.0787 23.172C29.8253 23.6013 30.6747 23.816 31.6267 23.816ZM47.3001 26.168C46.0681 26.168 44.8921 26 43.7721 25.664C42.6708 25.328 41.8028 24.9173 41.1681 24.432L42.2881 22.304C42.9228 22.7333 43.7068 23.0973 44.6401 23.396C45.5734 23.6947 46.5254 23.844 47.4961 23.844C48.7468 23.844 49.6428 23.6667 50.1841 23.312C50.7441 22.9573 51.0241 22.4627 51.0241 21.828C51.0241 21.3613 50.8561 20.9973 50.5201 20.736C50.1841 20.4747 49.7361 20.2787 49.1761 20.148C48.6348 20.0173 48.0281 19.9053 47.3561 19.812C46.6841 19.7 46.0121 19.5693 45.3401 19.42C44.6681 19.252 44.0521 19.028 43.4921 18.748C42.9321 18.4493 42.4841 18.048 42.1481 17.544C41.8121 17.0213 41.6441 16.3307 41.6441 15.472C41.6441 14.576 41.8961 13.792 42.4001 13.12C42.9041 12.448 43.6134 11.9347 44.5281 11.58C45.4614 11.2067 46.5628 11.02 47.8321 11.02C48.8028 11.02 49.7828 11.1413 50.7721 11.384C51.7801 11.608 52.6014 11.9347 53.2361 12.364L52.0881 14.492C51.4161 14.044 50.7161 13.736 49.9881 13.568C49.2601 13.4 48.5321 13.316 47.8041 13.316C46.6281 13.316 45.7508 13.512 45.1721 13.904C44.5934 14.2773 44.3041 14.7627 44.3041 15.36C44.3041 15.864 44.4721 16.256 44.8081 16.536C45.1628 16.7973 45.6108 17.0027 46.1521 17.152C46.7121 17.3013 47.3281 17.432 48.0001 17.544C48.6721 17.6373 49.3441 17.768 50.0161 17.936C50.6881 18.0853 51.2948 18.3 51.8361 18.58C52.3961 18.86 52.8441 19.252 53.1801 19.756C53.5348 20.26 53.7121 20.932 53.7121 21.772C53.7121 22.668 53.4508 23.4427 52.9281 24.096C52.4054 24.7493 51.6681 25.2627 50.7161 25.636C49.7641 25.9907 48.6254 26.168 47.3001 26.168Z" fill="#333333"/>
<path d="M11.256 58V55.06L10.976 54.416V49.152C10.976 48.2187 10.6867 47.4907 10.108 46.968C9.548 46.4453 8.68 46.184 7.504 46.184C6.70133 46.184 5.908 46.3147 5.124 46.576C4.35867 46.8187 3.70533 47.1547 3.164 47.584L1.596 44.532C2.41733 43.9533 3.40667 43.5053 4.564 43.188C5.72133 42.8707 6.89733 42.712 8.092 42.712C10.388 42.712 12.1707 43.2533 13.44 44.336C14.7093 45.4187 15.344 47.108 15.344 49.404V58H11.256ZM6.664 58.224C5.488 58.224 4.48 58.028 3.64 57.636C2.8 57.2253 2.156 56.6747 1.708 55.984C1.26 55.2933 1.036 54.5187 1.036 53.66C1.036 52.764 1.25067 51.98 1.68 51.308C2.128 50.636 2.828 50.1133 3.78 49.74C4.732 49.348 5.97333 49.152 7.504 49.152H11.508V51.7H7.98C6.95333 51.7 6.244 51.868 5.852 52.204C5.47867 52.54 5.292 52.96 5.292 53.464C5.292 54.024 5.50667 54.472 5.936 54.808C6.384 55.1253 6.99067 55.284 7.756 55.284C8.484 55.284 9.13733 55.116 9.716 54.78C10.2947 54.4253 10.7147 53.912 10.976 53.24L11.648 55.256C11.3307 56.2267 10.752 56.964 9.912 57.468C9.072 57.972 7.98933 58.224 6.664 58.224ZM24.3653 58.224C23.0773 58.224 21.8359 58.0747 20.6413 57.776C19.4653 57.4587 18.5319 57.0667 17.8413 56.6L19.2973 53.464C19.9879 53.8933 20.7999 54.248 21.7333 54.528C22.6853 54.7893 23.6186 54.92 24.5333 54.92C25.5413 54.92 26.2506 54.7987 26.6613 54.556C27.0906 54.3133 27.3053 53.9773 27.3053 53.548C27.3053 53.1933 27.1373 52.932 26.8013 52.764C26.4839 52.5773 26.0546 52.4373 25.5132 52.344C24.9719 52.2507 24.3746 52.1573 23.7213 52.064C23.0866 51.9707 22.4426 51.8493 21.7893 51.7C21.1359 51.532 20.5386 51.2893 19.9973 50.972C19.4559 50.6547 19.0173 50.2253 18.6813 49.684C18.3639 49.1427 18.2052 48.4427 18.2052 47.584C18.2052 46.632 18.4759 45.792 19.0173 45.064C19.5773 44.336 20.3799 43.7667 21.4253 43.356C22.4706 42.9267 23.7213 42.712 25.1773 42.712C26.2039 42.712 27.2493 42.824 28.3133 43.048C29.3773 43.272 30.2639 43.5987 30.9733 44.028L29.5173 47.136C28.7893 46.7067 28.0519 46.4173 27.3053 46.268C26.5773 46.1 25.8679 46.016 25.1773 46.016C24.2066 46.016 23.4973 46.1467 23.0493 46.408C22.6013 46.6693 22.3773 47.0053 22.3773 47.416C22.3773 47.7893 22.5359 48.0693 22.8533 48.256C23.1893 48.4427 23.6279 48.592 24.1693 48.704C24.7106 48.816 25.2986 48.9187 25.9333 49.012C26.5866 49.0867 27.2399 49.208 27.8933 49.376C28.5466 49.544 29.1346 49.7867 29.6573 50.104C30.1986 50.4027 30.6373 50.8227 30.9733 51.364C31.3093 51.8867 31.4773 52.5773 31.4773 53.436C31.4773 54.3693 31.1973 55.2 30.6373 55.928C30.0773 56.6373 29.2653 57.1973 28.2013 57.608C27.1559 58.0187 25.8773 58.224 24.3653 58.224ZM39.2403 58.224C37.9523 58.224 36.7109 58.0747 35.5163 57.776C34.3403 57.4587 33.4069 57.0667 32.7163 56.6L34.1723 53.464C34.8629 53.8933 35.6749 54.248 36.6083 54.528C37.5603 54.7893 38.4936 54.92 39.4083 54.92C40.4163 54.92 41.1256 54.7987 41.5363 54.556C41.9656 54.3133 42.1803 53.9773 42.1803 53.548C42.1803 53.1933 42.0123 52.932 41.6763 52.764C41.3589 52.5773 40.9296 52.4373 40.3882 52.344C39.8469 52.2507 39.2496 52.1573 38.5963 52.064C37.9616 51.9707 37.3176 51.8493 36.6643 51.7C36.0109 51.532 35.4136 51.2893 34.8723 50.972C34.3309 50.6547 33.8923 50.2253 33.5563 49.684C33.2389 49.1427 33.0802 48.4427 33.0802 47.584C33.0802 46.632 33.3509 45.792 33.8923 45.064C34.4523 44.336 35.2549 43.7667 36.3003 43.356C37.3456 42.9267 38.5963 42.712 40.0523 42.712C41.0789 42.712 42.1243 42.824 43.1883 43.048C44.2523 43.272 45.1389 43.5987 45.8483 44.028L44.3923 47.136C43.6643 46.7067 42.9269 46.4173 42.1803 46.268C41.4523 46.1 40.7429 46.016 40.0523 46.016C39.0816 46.016 38.3723 46.1467 37.9243 46.408C37.4763 46.6693 37.2523 47.0053 37.2523 47.416C37.2523 47.7893 37.4109 48.0693 37.7283 48.256C38.0643 48.4427 38.5029 48.592 39.0443 48.704C39.5856 48.816 40.1736 48.9187 40.8083 49.012C41.4616 49.0867 42.1149 49.208 42.7683 49.376C43.4216 49.544 44.0096 49.7867 44.5323 50.104C45.0736 50.4027 45.5123 50.8227 45.8483 51.364C46.1843 51.8867 46.3523 52.5773 46.3523 53.436C46.3523 54.3693 46.0723 55.2 45.5123 55.928C44.9523 56.6373 44.1403 57.1973 43.0763 57.608C42.0309 58.0187 40.7523 58.224 39.2403 58.224ZM55.4033 58.224C54.1526 58.224 53.0326 57.9813 52.0433 57.496C51.0726 57.0107 50.3166 56.2733 49.7753 55.284C49.2339 54.276 48.9633 52.9973 48.9633 51.448V42.936H53.3313V50.804C53.3313 52.0547 53.5926 52.9787 54.1153 53.576C54.6566 54.1547 55.4126 54.444 56.3833 54.444C57.0553 54.444 57.6526 54.304 58.1753 54.024C58.6979 53.7253 59.1086 53.2773 59.4073 52.68C59.7059 52.064 59.8553 51.2987 59.8553 50.384V42.936H64.2233V58H60.0793V53.856L60.8353 55.06C60.3313 56.1053 59.5846 56.8987 58.5953 57.44C57.6246 57.9627 56.5606 58.224 55.4033 58.224ZM68.2699 58V42.936H72.4419V47.192L71.8539 45.96C72.3019 44.896 73.0206 44.0933 74.0099 43.552C74.9992 42.992 76.2032 42.712 77.6219 42.712V46.744C77.4352 46.7253 77.2672 46.716 77.1179 46.716C76.9686 46.6973 76.8099 46.688 76.6419 46.688C75.4472 46.688 74.4766 47.0333 73.7299 47.724C73.0019 48.396 72.6379 49.4507 72.6379 50.888V58H68.2699ZM88.4748 58V55.06L88.1948 54.416V49.152C88.1948 48.2187 87.9054 47.4907 87.3268 46.968C86.7668 46.4453 85.8988 46.184 84.7228 46.184C83.9201 46.184 83.1268 46.3147 82.3428 46.576C81.5774 46.8187 80.9241 47.1547 80.3828 47.584L78.8148 44.532C79.6361 43.9533 80.6254 43.5053 81.7828 43.188C82.9401 42.8707 84.1161 42.712 85.3108 42.712C87.6068 42.712 89.3894 43.2533 90.6588 44.336C91.9281 45.4187 92.5628 47.108 92.5628 49.404V58H88.4748ZM83.8828 58.224C82.7068 58.224 81.6988 58.028 80.8588 57.636C80.0188 57.2253 79.3748 56.6747 78.9268 55.984C78.4788 55.2933 78.2548 54.5187 78.2548 53.66C78.2548 52.764 78.4694 51.98 78.8988 51.308C79.3468 50.636 80.0468 50.1133 80.9988 49.74C81.9508 49.348 83.1921 49.152 84.7228 49.152H88.7268V51.7H85.1988C84.1721 51.7 83.4628 51.868 83.0708 52.204C82.6974 52.54 82.5108 52.96 82.5108 53.464C82.5108 54.024 82.7254 54.472 83.1548 54.808C83.6028 55.1253 84.2094 55.284 84.9748 55.284C85.7028 55.284 86.3561 55.116 86.9348 54.78C87.5134 54.4253 87.9334 53.912 88.1948 53.24L88.8668 55.256C88.5494 56.2267 87.9708 56.964 87.1308 57.468C86.2908 57.972 85.2081 58.224 83.8828 58.224ZM105.672 42.712C106.867 42.712 107.931 42.9547 108.864 43.44C109.816 43.9067 110.563 44.6347 111.104 45.624C111.645 46.5947 111.916 47.8453 111.916 49.376V58H107.548V50.048C107.548 48.8347 107.277 47.9387 106.736 47.36C106.213 46.7813 105.467 46.492 104.496 46.492C103.805 46.492 103.18 46.6413 102.62 46.94C102.079 47.22 101.649 47.6587 101.332 48.256C101.033 48.8533 100.884 49.6187 100.884 50.552V58H96.516V42.936H100.688V47.108L99.904 45.848C100.445 44.84 101.22 44.0653 102.228 43.524C103.236 42.9827 104.384 42.712 105.672 42.712ZM123.265 58.224C121.641 58.224 120.194 57.8973 118.925 57.244C117.655 56.572 116.657 55.648 115.929 54.472C115.219 53.296 114.865 51.9613 114.865 50.468C114.865 48.956 115.219 47.6213 115.929 46.464C116.657 45.288 117.655 44.3733 118.925 43.72C120.194 43.048 121.641 42.712 123.265 42.712C124.851 42.712 126.233 43.048 127.409 43.72C128.585 44.3733 129.453 45.316 130.013 46.548L126.625 48.368C126.233 47.6587 125.738 47.136 125.141 46.8C124.562 46.464 123.927 46.296 123.237 46.296C122.49 46.296 121.818 46.464 121.221 46.8C120.623 47.136 120.147 47.612 119.793 48.228C119.457 48.844 119.289 49.5907 119.289 50.468C119.289 51.3453 119.457 52.092 119.793 52.708C120.147 53.324 120.623 53.8 121.221 54.136C121.818 54.472 122.49 54.64 123.237 54.64C123.927 54.64 124.562 54.4813 125.141 54.164C125.738 53.828 126.233 53.296 126.625 52.568L130.013 54.416C129.453 55.6293 128.585 56.572 127.409 57.244C126.233 57.8973 124.851 58.224 123.265 58.224ZM139.812 58.224C138.095 58.224 136.583 57.888 135.276 57.216C133.988 56.544 132.99 55.6293 132.28 54.472C131.571 53.296 131.216 51.9613 131.216 50.468C131.216 48.956 131.562 47.6213 132.252 46.464C132.962 45.288 133.923 44.3733 135.136 43.72C136.35 43.048 137.722 42.712 139.252 42.712C140.727 42.712 142.052 43.0293 143.228 43.664C144.423 44.28 145.366 45.176 146.056 46.352C146.747 47.5093 147.092 48.9 147.092 50.524C147.092 50.692 147.083 50.888 147.064 51.112C147.046 51.3173 147.027 51.5133 147.008 51.7H134.772V49.152H144.712L143.032 49.908C143.032 49.124 142.874 48.4427 142.556 47.864C142.239 47.2853 141.8 46.8373 141.24 46.52C140.68 46.184 140.027 46.016 139.28 46.016C138.534 46.016 137.871 46.184 137.292 46.52C136.732 46.8373 136.294 47.2947 135.976 47.892C135.659 48.4707 135.5 49.1613 135.5 49.964V50.636C135.5 51.4573 135.678 52.1853 136.032 52.82C136.406 53.436 136.919 53.912 137.572 54.248C138.244 54.5653 139.028 54.724 139.924 54.724C140.727 54.724 141.427 54.6027 142.024 54.36C142.64 54.1173 143.2 53.7533 143.704 53.268L146.028 55.788C145.338 56.572 144.47 57.1787 143.424 57.608C142.379 58.0187 141.175 58.224 139.812 58.224ZM155.068 58.224C153.78 58.224 152.539 58.0747 151.344 57.776C150.168 57.4587 149.235 57.0667 148.544 56.6L150 53.464C150.691 53.8933 151.503 54.248 152.436 54.528C153.388 54.7893 154.322 54.92 155.236 54.92C156.244 54.92 156.954 54.7987 157.364 54.556C157.794 54.3133 158.008 53.9773 158.008 53.548C158.008 53.1933 157.84 52.932 157.504 52.764C157.187 52.5773 156.758 52.4373 156.216 52.344C155.675 52.2507 155.078 52.1573 154.424 52.064C153.79 51.9707 153.146 51.8493 152.492 51.7C151.839 51.532 151.242 51.2893 150.7 50.972C150.159 50.6547 149.72 50.2253 149.384 49.684C149.067 49.1427 148.908 48.4427 148.908 47.584C148.908 46.632 149.179 45.792 149.72 45.064C150.28 44.336 151.083 43.7667 152.128 43.356C153.174 42.9267 154.424 42.712 155.88 42.712C156.907 42.712 157.952 42.824 159.016 43.048C160.08 43.272 160.967 43.5987 161.676 44.028L160.22 47.136C159.492 46.7067 158.755 46.4173 158.008 46.268C157.28 46.1 156.571 46.016 155.88 46.016C154.91 46.016 154.2 46.1467 153.752 46.408C153.304 46.6693 153.08 47.0053 153.08 47.416C153.08 47.7893 153.239 48.0693 153.556 48.256C153.892 48.4427 154.331 48.592 154.872 48.704C155.414 48.816 156.002 48.9187 156.636 49.012C157.29 49.0867 157.943 49.208 158.596 49.376C159.25 49.544 159.838 49.7867 160.36 50.104C160.902 50.4027 161.34 50.8227 161.676 51.364C162.012 51.8867 162.18 52.5773 162.18 53.436C162.18 54.3693 161.9 55.2 161.34 55.928C160.78 56.6373 159.968 57.1973 158.904 57.608C157.859 58.0187 156.58 58.224 155.068 58.224Z" fill="#E41D4B"/>
<rect x="75" y="16" width="88" height="2" fill="#333333"/>
</svg>
