<svg width="337" height="564" viewBox="0 0 337 564" fill="none" xmlns="http://www.w3.org/2000/svg">
<path opacity="0.1" d="M25.44 59.12C20.64 59.12 16.3733 57.9733 12.64 55.68C8.90667 53.3867 5.97333 50.0533 3.84 45.68C1.76 41.2533 0.72 36.0267 0.72 30C0.72 23.9733 1.76 18.7733 3.84 14.4C5.97333 9.97333 8.90667 6.61333 12.64 4.32C16.3733 2.02666 20.64 0.879996 25.44 0.879996C30.1867 0.879996 34.4267 2.02666 38.16 4.32C41.8933 6.61333 44.8 9.97333 46.88 14.4C49.0133 18.7733 50.08 23.9733 50.08 30C50.08 36.0267 49.0133 41.2533 46.88 45.68C44.8 50.0533 41.8933 53.3867 38.16 55.68C34.4267 57.9733 30.1867 59.12 25.44 59.12ZM25.44 46.16C28.1067 46.16 30.2133 44.88 31.76 42.32C33.36 39.7067 34.16 35.6 34.16 30C34.16 24.4 33.36 20.32 31.76 17.76C30.2133 15.1467 28.1067 13.84 25.44 13.84C22.72 13.84 20.56 15.1467 18.96 17.76C17.4133 20.32 16.64 24.4 16.64 30C16.64 35.6 17.4133 39.7067 18.96 42.32C20.56 44.88 22.72 46.16 25.44 46.16ZM78.8606 2V58H63.0206V14.24H52.6206V2H78.8606Z" fill="#333333"/>
<path opacity="0.1" d="M253.44 227.12C248.64 227.12 244.373 225.973 240.64 223.68C236.907 221.387 233.973 218.053 231.84 213.68C229.76 209.253 228.72 204.027 228.72 198C228.72 191.973 229.76 186.773 231.84 182.4C233.973 177.973 236.907 174.613 240.64 172.32C244.373 170.027 248.64 168.88 253.44 168.88C258.187 168.88 262.427 170.027 266.16 172.32C269.893 174.613 272.8 177.973 274.88 182.4C277.013 186.773 278.08 191.973 278.08 198C278.08 204.027 277.013 209.253 274.88 213.68C272.8 218.053 269.893 221.387 266.16 223.68C262.427 225.973 258.187 227.12 253.44 227.12ZM253.44 214.16C256.107 214.16 258.213 212.88 259.76 210.32C261.36 207.707 262.16 203.6 262.16 198C262.16 192.4 261.36 188.32 259.76 185.76C258.213 183.147 256.107 181.84 253.44 181.84C250.72 181.84 248.56 183.147 246.96 185.76C245.413 188.32 244.64 192.4 244.64 198C244.64 203.6 245.413 207.707 246.96 210.32C248.56 212.88 250.72 214.16 253.44 214.16ZM326.141 213.44V226H282.541V216.08L303.501 196.48C305.527 194.56 306.887 192.933 307.581 191.6C308.274 190.213 308.621 188.827 308.621 187.44C308.621 185.627 308.007 184.213 306.781 183.2C305.554 182.187 303.767 181.68 301.421 181.68C299.341 181.68 297.421 182.16 295.661 183.12C293.954 184.027 292.541 185.36 291.421 187.12L279.661 180.56C281.847 176.933 284.914 174.08 288.861 172C292.807 169.92 297.474 168.88 302.861 168.88C307.127 168.88 310.887 169.573 314.141 170.96C317.447 172.347 320.007 174.347 321.821 176.96C323.687 179.52 324.621 182.507 324.621 185.92C324.621 188.96 323.954 191.84 322.621 194.56C321.341 197.227 318.834 200.267 315.101 203.68L304.541 213.44H326.141Z" fill="#333333"/>
<path opacity="0.1" d="M25.44 395.12C20.64 395.12 16.3733 393.973 12.64 391.68C8.90667 389.387 5.97333 386.053 3.84 381.68C1.76 377.253 0.72 372.027 0.72 366C0.72 359.973 1.76 354.773 3.84 350.4C5.97333 345.973 8.90667 342.613 12.64 340.32C16.3733 338.027 20.64 336.88 25.44 336.88C30.1867 336.88 34.4267 338.027 38.16 340.32C41.8933 342.613 44.8 345.973 46.88 350.4C49.0133 354.773 50.08 359.973 50.08 366C50.08 372.027 49.0133 377.253 46.88 381.68C44.8 386.053 41.8933 389.387 38.16 391.68C34.4267 393.973 30.1867 395.12 25.44 395.12ZM25.44 382.16C28.1067 382.16 30.2133 380.88 31.76 378.32C33.36 375.707 34.16 371.6 34.16 366C34.16 360.4 33.36 356.32 31.76 353.76C30.2133 351.147 28.1067 349.84 25.44 349.84C22.72 349.84 20.56 351.147 18.96 353.76C17.4133 356.32 16.64 360.4 16.64 366C16.64 371.6 17.4133 375.707 18.96 378.32C20.56 380.88 22.72 382.16 25.44 382.16ZM83.4244 360.4C88.0644 361.36 91.611 363.28 94.0644 366.16C96.571 368.987 97.8244 372.427 97.8244 376.48C97.8244 379.787 96.9177 382.853 95.1044 385.68C93.3444 388.507 90.6244 390.8 86.9444 392.56C83.3177 394.267 78.811 395.12 73.4244 395.12C69.4777 395.12 65.5577 394.64 61.6644 393.68C57.8244 392.72 54.491 391.36 51.6644 389.6L57.4244 377.68C59.611 379.173 62.0644 380.32 64.7844 381.12C67.5577 381.92 70.2777 382.32 72.9444 382.32C75.6644 382.32 77.8244 381.813 79.4244 380.8C81.0244 379.787 81.8244 378.347 81.8244 376.48C81.8244 372.853 78.971 371.04 73.2644 371.04H66.6244V361.04L76.6244 350.24H54.5444V338H95.0244V347.92L83.4244 360.4Z" fill="#333333"/>
<path opacity="0.1" d="M253.44 563.12C248.64 563.12 244.373 561.973 240.64 559.68C236.907 557.387 233.973 554.053 231.84 549.68C229.76 545.253 228.72 540.027 228.72 534C228.72 527.973 229.76 522.773 231.84 518.4C233.973 513.973 236.907 510.613 240.64 508.32C244.373 506.027 248.64 504.88 253.44 504.88C258.187 504.88 262.427 506.027 266.16 508.32C269.893 510.613 272.8 513.973 274.88 518.4C277.013 522.773 278.08 527.973 278.08 534C278.08 540.027 277.013 545.253 274.88 549.68C272.8 554.053 269.893 557.387 266.16 559.68C262.427 561.973 258.187 563.12 253.44 563.12ZM253.44 550.16C256.107 550.16 258.213 548.88 259.76 546.32C261.36 543.707 262.16 539.6 262.16 534C262.16 528.4 261.36 524.32 259.76 521.76C258.213 519.147 256.107 517.84 253.44 517.84C250.72 517.84 248.56 519.147 246.96 521.76C245.413 524.32 244.64 528.4 244.64 534C244.64 539.6 245.413 543.707 246.96 546.32C248.56 548.88 250.72 550.16 253.44 550.16ZM336.286 551.28H327.966V562H312.526V551.28H282.926V540.96L308.046 506H324.446L301.646 538.72H313.006V529.2H327.966V538.72H336.286V551.28Z" fill="#333333"/>
</svg>