<svg width="178" height="88" viewBox="0 0 178 88" fill="none" xmlns="http://www.w3.org/2000/svg">
<path d="M10.7432 37.8063H16.3012C20.3008 37.8063 22.7681 39.8812 22.7681 43.2954C22.7681 45.5016 21.7032 47.1562 19.8592 48.0493L25.573 56.1912H21.1579L16.3271 48.7584H14.431V56.1911H10.7432V37.8063ZM14.431 40.9843V45.5804H16.5089C18.0671 45.5804 18.9762 44.7399 18.9762 43.2429C18.9762 41.8508 18.0671 40.9842 16.5089 40.9842L14.431 40.9843Z" fill="#333333"/>
<path d="M27.8589 37.8063H38.4552V40.9843H31.5467V45.239H37.4165V48.417H31.5467V53.0131H38.4552V56.1911H27.8589V37.8063ZM31.443 36.2304L34.3777 32.6849H38.1696L34.7931 36.2304H31.443Z" fill="#333333"/>
<path d="M42.7407 37.8063H48.7404C52.7399 37.8063 55.1813 39.8812 55.1813 43.2954C55.1813 46.6835 52.7399 48.7584 48.7404 48.7584H46.4289V56.1911H42.7407V37.8063ZM46.4288 40.9843V45.5804H48.8961C50.4543 45.5804 51.3895 44.7399 51.3895 43.2429C51.3895 41.8508 50.4543 40.9842 48.8961 40.9842L46.4288 40.9843Z" fill="#333333"/>
<path d="M68.9466 37.8063H72.6344V48.9948C72.6344 53.8274 69.8295 56.7164 65.2585 56.7164C60.7136 56.7164 57.9087 53.8274 57.9087 48.9948V37.8063H61.5966V49.3099C61.5966 51.7788 62.9732 53.2233 65.2847 53.2233C67.5444 53.2233 68.9467 51.7788 68.9467 49.3099L68.9466 37.8063Z" fill="#333333"/>
<path d="M77.2056 37.8063H82.374C86.1658 37.8063 88.4515 39.6973 88.4515 42.7965C88.4561 43.5149 88.2826 44.223 87.9469 44.8562C87.6112 45.4893 87.1239 46.0272 86.5296 46.4208C88.4515 47.2876 89.5163 48.8634 89.5163 50.7807C89.5163 54.1425 86.9451 56.1911 82.7636 56.1911H77.2056V37.8063ZM80.8937 40.9843V45.0026H82.4519C83.8543 45.0026 84.6597 44.2935 84.6597 42.9803C84.6597 41.7458 83.8543 40.9843 82.4519 40.9843H80.8937ZM80.8937 48.2068V53.0131H82.9713C84.6855 53.0131 85.7245 52.0939 85.7245 50.5706C85.7245 49.0474 84.6855 48.2068 82.9713 48.2068H80.8937Z" fill="#333333"/>
<path d="M93.2832 37.8063H96.971V52.803H103.879V56.1911H93.2832V37.8063Z" fill="#333333"/>
<path d="M107.126 37.8063H110.814V56.1911H107.126V37.8063Z" fill="#333333"/>
<path d="M134.968 57.478C135.41 57.4854 135.849 57.4143 136.266 57.2679V60.4196C135.656 60.6653 135.002 60.7815 134.345 60.761C132.319 60.761 130.449 59.9206 128.657 58.3447L126.501 56.4012C125.687 56.6158 124.849 56.7218 124.008 56.7164C118.268 56.7164 114.347 52.2515 114.347 46.9988C114.347 41.746 118.268 37.2811 124.008 37.2811C129.722 37.2811 133.643 41.7459 133.643 46.9988C133.657 48.4677 133.341 49.9206 132.721 51.2487C132.1 52.5768 131.19 53.7457 130.059 54.6678L131.15 55.7184C132.553 57.0053 133.799 57.478 134.968 57.478ZM129.852 46.9988C129.852 43.4794 127.41 40.7741 124.008 40.7741C120.58 40.7741 118.139 43.4794 118.139 46.9988C118.139 50.5182 120.58 53.2233 124.008 53.2233C127.41 53.2233 129.852 50.518 129.852 46.9988Z" fill="#333333"/>
<path d="M147.903 37.8063H151.59V48.9948C151.59 53.8274 148.786 56.7164 144.215 56.7164C139.67 56.7164 136.865 53.8274 136.865 48.9948V37.8063H140.553V49.3099C140.553 51.7788 141.929 53.2233 144.241 53.2233C146.5 53.2233 147.903 51.7788 147.903 49.3099V37.8063Z" fill="#333333"/>
<path d="M156.162 37.8063H166.758V40.9843H159.85V45.239H165.719V48.417H159.85V53.0131H166.758V56.1911H156.162V37.8063Z" fill="#333333"/>
<path d="M10.7432 64.3164H21.3395V67.4945H14.431V71.7492H20.3008V74.9274H14.431V82.7013H10.7432V64.3164Z" fill="#333333"/>
<path d="M24.5864 64.3164H30.1445C34.144 64.3164 36.6113 66.3913 36.6113 69.8056C36.6113 72.0118 35.5465 73.6663 33.7024 74.5594L39.4163 82.7013H35.0011L30.1703 75.2685H28.2743V82.7014H24.5864V64.3164ZM28.2743 67.4945V72.0905H30.3522C31.9104 72.0905 32.8195 71.2499 32.8195 69.7531C32.8195 68.361 31.9104 67.4944 30.3522 67.4944L28.2743 67.4945Z" fill="#333333"/>
<path d="M47.0784 64.3164H51.9089L58.7915 82.7013H54.8697L53.1296 77.9212H45.8575L44.1175 82.7013H40.1958L47.0784 64.3164ZM51.9868 74.7431L49.4937 67.8358L47.0003 74.7431H51.9868Z" fill="#333333"/>
<path d="M61.5967 64.3164H66.3238L74.4527 77.4749V64.3164H78.1405V82.7013H73.4137L65.2847 69.4905V82.7013H61.5967V64.3164Z" fill="#333333"/>
<path d="M96.0875 77.2123L98.9963 79.4708C98.2605 80.4791 97.3274 81.3236 96.2551 81.9517C95.1828 82.5797 93.9941 82.978 92.7631 83.1217L90.5034 86.9298H87.2312L89.5168 83.0688C84.7897 82.2285 81.6733 78.1839 81.6733 73.5088C81.6733 68.256 85.5951 63.7911 91.3347 63.7911C94.6329 63.7911 97.334 65.2882 98.9962 67.5206L96.0873 69.8057C95.5617 69.0221 94.8529 68.382 94.0238 67.9421C93.1946 67.5023 92.2709 67.2763 91.3347 67.2843C87.9064 67.2843 85.4652 69.9896 85.4652 73.5089C85.4652 77.0282 87.9063 79.7336 91.3347 79.7336C92.2709 79.7416 93.1947 79.5157 94.0238 79.0759C94.853 78.636 95.5619 77.9958 96.0875 77.2123Z" fill="#333333"/>
<path d="M106.659 64.3164H111.49L118.372 82.7013H114.45L112.71 77.9212H105.438L103.698 82.7013H99.7764L106.659 64.3164ZM111.567 74.7431L109.074 67.8358L106.581 74.7431H111.567Z" fill="#333333"/>
<path d="M121.177 64.3164H124.865V82.7013H121.177V64.3164Z" fill="#333333"/>
<path d="M130.995 77.6585C132.085 79.0768 133.54 79.9174 135.02 79.9174C136.475 79.9174 137.357 79.1294 137.357 77.7899C137.357 74.5069 129.047 75.2423 129.047 69.1228C129.047 66.2075 131.41 63.7912 134.864 63.7912C137.591 63.7912 139.695 65.0256 141.227 66.8904L138.526 69.3329C137.461 67.941 136.267 67.0478 134.89 67.0478C133.618 67.0478 132.787 67.8882 132.787 68.9651C132.787 72.2483 141.098 71.4864 141.098 77.7111C141.046 81.1256 138.396 83.2265 135.072 83.2265C132.007 83.2265 129.93 82.0971 128.319 80.1536L130.995 77.6585Z" fill="#333333"/>
<path d="M144.968 64.3164H155.564V67.4945H148.656V71.7492H154.525V74.9274H148.656V79.5235H155.564V82.7013H144.968V64.3164Z" fill="#333333"/>
<path d="M38.1245 22.7225C38.3836 22.4606 38.6452 22.1792 38.9052 21.8968H38.8995C39.3696 21.3379 39.8781 20.8132 40.421 20.3264C40.5779 20.1823 40.7436 20.0483 40.9171 19.9253C40.9628 19.8792 40.9628 19.7869 41.0084 19.7408C40.7803 19.8331 40.6434 20.0176 40.4154 20.1098C40.3698 20.1098 40.3242 20.0637 40.3698 20.0176C40.5324 19.8943 40.6949 19.7711 40.8573 19.6479C40.8472 19.6485 40.8366 19.6485 40.826 19.6485C40.7804 19.6485 40.7804 19.6024 40.7804 19.5563C40.1874 19.464 39.7312 19.8792 39.3206 20.2482C39.2293 20.2944 39.1381 20.2021 39.0925 20.2021C38.4083 20.4328 37.9066 21.0325 37.2222 21.3093V21.217C36.954 21.3385 36.68 21.4463 36.4011 21.5399C36.024 21.6004 35.6412 21.6159 35.2606 21.5861C34.7027 21.6547 34.1489 21.7544 33.6019 21.8847C33.5861 21.8889 33.5699 21.8925 33.5541 21.8968C33.2581 21.9776 32.9728 22.0938 32.7041 22.243C32.6935 22.2488 32.6832 22.255 32.673 22.2612C32.6503 22.2901 32.628 22.3177 32.6068 22.3411C32.5208 22.4523 32.4146 22.5459 32.294 22.6171C32.0219 22.7898 31.7684 22.9908 31.5375 23.2167C31.5161 23.2319 31.4905 23.24 31.4644 23.2402C31.2197 23.4774 30.9783 23.7182 30.7297 23.9513C30.6862 23.9717 30.6375 23.9776 30.5905 23.9683C30.5916 23.9667 30.5933 23.9658 30.5944 23.964C30.603 23.9494 30.6119 23.9347 30.6206 23.92C30.659 23.8549 30.698 23.7901 30.7375 23.7255C30.7817 23.6533 30.8268 23.5819 30.8728 23.5112C30.935 23.4158 30.9988 23.3215 31.0669 23.2304C31.0745 23.2221 31.0787 23.2111 31.0784 23.1997C31.078 23.1884 31.0733 23.1776 31.0652 23.1698C31.0569 23.1617 31.047 23.1555 31.0361 23.1514C31.0253 23.1472 31.0138 23.1453 31.0022 23.1458C31.2355 22.9251 31.4923 22.7312 31.7679 22.5678V22.56C31.7375 22.5707 31.6933 22.546 31.7164 22.5134C31.7452 22.4726 31.7679 22.4291 31.7949 22.3876C31.8001 22.374 31.8048 22.3603 31.8096 22.3465C31.7981 22.3343 31.7866 22.3223 31.775 22.3101C31.6999 22.3551 31.6283 22.4058 31.5606 22.4617C31.4515 22.5612 31.3661 22.7646 31.2004 22.7626C31.1771 22.7622 31.1539 22.7589 31.1313 22.7526C31.1145 22.7503 31.0982 22.7447 31.0835 22.7362L31.0892 22.7255L31.0961 22.7129L31.1027 22.7009C31.1098 22.6877 31.117 22.6745 31.1243 22.6613C31.1316 22.648 31.1387 22.6347 31.146 22.6214C31.152 22.6108 31.1576 22.6 31.1636 22.5894C31.1745 22.5699 31.1849 22.5502 31.1959 22.5308C31.2037 22.5168 31.212 22.5031 31.2199 22.4891C31.2393 22.4551 31.2591 22.4213 31.2787 22.3873C31.2881 22.371 31.2974 22.3546 31.3069 22.3383C31.3232 22.3104 31.3389 22.2822 31.3553 22.2544C31.3599 22.247 31.3627 22.2385 31.3634 22.2298C31.3641 22.2211 31.3628 22.2123 31.3594 22.2042C31.356 22.1961 31.3508 22.189 31.3442 22.1834C31.3375 22.1778 31.3296 22.1738 31.3211 22.172C31.406 22.06 31.5122 21.9664 31.6335 21.8967H31.6197C31.7944 21.8078 31.969 21.6997 32.1436 21.6005C32.1687 21.5785 32.1937 21.5562 32.219 21.5345C31.9625 21.6225 31.7185 21.7443 31.4935 21.8967C31.4662 21.9075 31.4403 21.9216 31.4164 21.9388C31.3954 21.9434 31.3736 21.9419 31.3535 21.9345C31.3333 21.927 31.3157 21.9139 31.3027 21.8967C31.2953 21.887 31.2914 21.875 31.2917 21.8627C31.3374 21.7705 31.4742 21.7243 31.5654 21.6321C31.611 21.6321 31.6566 21.6321 31.6566 21.6782C33.1164 20.5249 35.1236 20.8017 36.8115 20.202L37.222 19.9252C37.4501 19.833 37.6325 19.6023 37.9063 19.4639C38.2749 19.2079 38.5479 18.8343 38.6818 18.4029C38.677 18.3679 38.661 18.3355 38.6362 18.3106C38.0629 18.9358 37.383 19.4515 36.629 19.833C35.671 20.3404 34.6218 20.2482 33.6182 20.3865C33.6639 20.2943 33.7551 20.2943 33.8463 20.2943C33.8463 20.1559 33.9375 20.1098 34.0288 20.0175H34.1657C34.2112 20.0175 34.2112 19.9252 34.2568 19.9252C34.348 19.9252 34.485 19.8791 34.4394 19.8791C34.3024 19.6946 34.0288 20.0175 33.8007 19.8791C33.8919 19.7868 33.8463 19.6484 33.9375 19.6023H34.12C34.1296 19.5324 34.1616 19.4675 34.2112 19.4178C34.8955 19.0026 35.5342 18.6797 36.1728 18.3106C36.0359 18.3106 35.9447 18.4491 35.8079 18.3568C35.8992 18.3568 35.8079 18.2184 35.8992 18.2184C36.4009 18.08 36.8115 17.8032 37.3133 17.6187C37.1308 17.6187 36.9938 17.7571 36.8115 17.6187C36.9027 17.5725 36.9483 17.4803 37.0852 17.4803V17.3419C37.0852 17.2958 37.1308 17.2958 37.1764 17.2958C37.1418 17.2909 37.1098 17.2747 37.0852 17.2496C37.1308 17.1574 37.2676 17.2035 37.3589 17.1113C37.3133 17.1113 37.222 17.1113 37.222 17.0651C37.3787 16.9014 37.5902 16.8027 37.815 16.7883C37.7694 16.6961 37.6325 16.7883 37.6325 16.6961C37.6325 16.65 37.6782 16.6499 37.7238 16.6499H37.6325C37.5413 16.6038 37.5869 16.5115 37.5869 16.4654C37.8606 16.1425 37.8606 15.7273 37.9974 15.3582C37.9518 15.3582 37.9062 15.3582 37.9062 15.3121C37.45 15.8195 36.7201 16.0041 36.0359 16.1886H35.8079C35.6831 16.2382 35.5491 16.2597 35.4152 16.2518C35.2813 16.2438 35.1507 16.2065 35.0324 16.1425C34.8695 16.0338 34.7168 15.9103 34.5762 15.7734C34.2196 15.5431 33.8366 15.3572 33.4358 15.2199C32.3031 14.8453 31.1144 14.6736 29.9233 14.7124C30.425 14.4357 30.9785 14.4121 31.5199 14.2511C32.2954 14.0204 33.0253 13.7437 33.8463 13.7898C33.6951 13.7667 33.5414 13.7667 33.3901 13.7898C32.7516 13.7437 32.1128 13.9282 31.4286 14.0666C30.9725 14.1589 30.5619 14.3434 30.1057 14.4357C29.832 14.5279 29.6951 14.8047 29.3758 14.7585V14.6201C29.832 14.0666 30.3794 13.513 31.1093 13.4669C31.9304 13.3285 32.7059 13.4669 33.5271 13.5591C34.1122 13.622 34.6916 13.73 35.2605 13.882C35.4886 13.882 35.5342 14.2511 35.7167 14.2972C35.9904 14.3895 36.2641 14.2972 36.5378 14.4818C36.5378 14.3895 36.4922 14.2972 36.5378 14.205C36.7202 14.0204 36.9483 14.2511 37.1309 14.1589C37.4958 13.9282 36.8116 13.513 36.629 13.1901C36.6338 13.1551 36.6498 13.1227 36.6746 13.0978C37.0395 13.4208 37.3133 13.7898 37.7695 14.0206C37.9975 14.1128 38.545 14.2512 38.4537 13.9745C38.2256 13.467 37.7695 13.0517 37.4045 12.5905V12.406C37.3133 12.406 37.3133 12.3598 37.2677 12.3137V12.1292C37.0852 12.0369 37.1309 11.8524 37.0395 11.714C36.9028 11.4834 36.9939 11.1604 36.9028 10.8836C36.8205 10.6278 36.7594 10.3655 36.7202 10.0994C36.5834 9.31515 36.401 8.62319 36.3097 7.88506C36.2185 7.00861 36.8116 6.31662 37.2222 5.53241C37.5184 4.93952 37.9577 4.43178 38.4995 4.05619C38.6807 3.5071 38.9763 3.00372 39.3663 2.58C39.7618 2.17018 40.2429 1.85491 40.7744 1.65723C41.17 1.4795 41.5748 1.32326 41.9869 1.18918H10.6797V25.6015H32.8506C33.7191 24.9692 34.5865 24.6688 35.7988 24.0647C36.3711 23.7795 37.6807 23.1713 38.1245 22.7225ZM31.1096 19.4178C31.0183 19.4178 30.8359 19.464 30.8815 19.3718C30.927 19.1411 31.2464 19.1411 31.4288 19.0488C31.5201 19.0027 31.6569 18.9104 31.7481 18.9565C31.8394 19.095 31.9763 19.0488 32.0677 19.1411C31.7937 19.4178 31.4287 19.2796 31.1095 19.4178H31.1096ZM24.1298 18.403C24.105 18.3781 24.0889 18.3457 24.0842 18.3107C24.6453 17.5764 25.1342 16.7884 25.5439 15.958C26.126 15.6142 26.6496 15.1781 27.095 14.6664C27.8157 13.8365 28.6817 13.1484 29.6495 12.6365C30.0383 12.5133 30.4572 12.5296 30.8355 12.6827C30.6986 12.8672 30.4705 12.821 30.288 12.9595C30.2633 12.9626 30.2381 12.96 30.2144 12.9521C30.1908 12.9441 30.1692 12.9309 30.1512 12.9134C30.1685 12.8952 30.1816 12.8733 30.1894 12.8494C30.1973 12.8254 30.1998 12.8 30.1968 12.7749C29.7406 13.2824 29.102 13.513 28.737 14.1127C28.4633 14.574 28.2808 15.1738 27.6878 15.312C27.5053 15.3581 27.7334 15.1737 27.6422 15.2198C26.2282 16.0963 25.2247 17.1575 24.1298 18.403ZM27.9161 15.3581C27.8705 15.4504 27.82 15.4602 27.7792 15.5427C27.7433 15.6251 27.6782 15.691 27.5967 15.7272C27.5511 15.7272 27.5055 15.7272 27.5055 15.6811C27.5256 15.5859 27.5698 15.4976 27.6338 15.4248C27.6978 15.352 27.7793 15.2973 27.8705 15.2659C27.9162 15.266 27.9162 15.3121 27.9162 15.3583L27.9161 15.3581ZM30.0347 22.2699C30.0074 22.3225 29.9691 22.3684 29.9224 22.4045C29.9794 22.4161 30.0194 22.4417 29.9826 22.4758C29.8859 22.5812 29.768 22.6644 29.6368 22.7197C29.6138 22.7253 29.5903 22.7285 29.5666 22.7295C29.5108 22.7841 29.4547 22.8385 29.3964 22.8907C29.3423 22.9393 29.0915 22.9041 29.1682 22.8354C29.284 22.7317 29.3912 22.619 29.5054 22.5135C29.5722 22.4561 29.6355 22.3947 29.6951 22.3298C29.7234 22.2917 29.7563 22.2574 29.7931 22.2276C29.8304 22.2011 30.0717 22.1795 30.0347 22.27L30.0347 22.2699ZM29.2171 21.8885L29.2056 21.8965C29.0348 22.0182 28.8647 22.1422 28.6846 22.2479C28.4896 22.3623 28.2853 22.4494 28.083 22.5466C28.0816 22.5426 28.0796 22.5389 28.0773 22.5354C28.0688 22.5233 28.0564 22.5148 28.0422 22.5114C28.028 22.508 28.0131 22.5099 28.0002 22.5168C27.8322 22.6134 27.6778 22.7324 27.541 22.8704C27.5197 22.8909 27.4986 22.9116 27.4776 22.9325L27.4739 22.9361L27.4703 22.9396C27.4486 22.9612 27.427 22.983 27.4055 23.0049L27.3978 23.0126C27.3965 23.014 27.3963 23.0156 27.3949 23.0168C27.3625 23.0495 27.3311 23.0824 27.2956 23.1247C27.2791 23.1496 27.2585 23.1714 27.2347 23.1893C27.2064 23.2083 27.1279 23.2079 27.1352 23.1547C27.1356 23.1516 27.1354 23.1486 27.1357 23.1456C27.1088 23.16 27.0819 23.1744 27.0547 23.1876C27.0297 23.1997 27.0067 23.2136 26.9835 23.2272C26.9735 23.2233 26.9627 23.2217 26.9521 23.2225C26.9402 23.2227 26.9287 23.2266 26.9192 23.2337C26.8634 23.2779 26.8081 23.3249 26.7544 23.3742C26.6585 23.4615 26.5699 23.5567 26.4896 23.6588L26.4855 23.663L26.4765 23.6758C26.472 23.6816 26.4674 23.6876 26.4629 23.6936C26.4584 23.6996 26.4531 23.7062 26.4485 23.7126L26.4441 23.7185C26.4333 23.7335 26.4235 23.749 26.4131 23.7643L26.4113 23.7672C26.401 23.7771 26.3879 23.7835 26.3739 23.7854C26.3677 23.7762 26.3613 23.7673 26.3555 23.7579C26.3511 23.7506 26.347 23.743 26.3428 23.7356C26.329 23.7116 26.3161 23.687 26.3039 23.6616L26.3026 23.659C26.2989 23.6513 26.2952 23.6437 26.2917 23.6359C26.3412 23.5823 26.3888 23.5267 26.435 23.47L26.4441 23.4588C26.46 23.4391 26.4758 23.4194 26.4915 23.3996C26.5173 23.3668 26.5428 23.3339 26.5679 23.3009C26.5772 23.2887 26.5866 23.2765 26.5958 23.2644C26.6459 23.1982 26.6937 23.1341 26.7385 23.0695L26.7418 23.0645C26.7485 23.0549 26.7551 23.0452 26.7615 23.0354C26.7834 23.0027 26.8044 22.9698 26.8241 22.9363C26.8417 22.9061 26.8584 22.8755 26.874 22.8442L26.8776 22.8374L26.8824 22.8278C26.8851 22.8222 26.8872 22.8162 26.8898 22.8107C26.9059 22.7759 26.9203 22.74 26.9332 22.703L26.9372 22.691C26.9407 22.6809 26.9442 22.671 26.9474 22.6607C26.9525 22.6441 26.9573 22.6271 26.9618 22.6099V22.6097L26.9644 22.5985C26.97 22.5762 26.9759 22.5542 26.9803 22.5309C26.9822 22.5202 26.9803 22.5091 26.9748 22.4998C27.0262 22.4106 27.0868 22.3271 27.1556 22.2507C27.1488 22.255 27.1412 22.2585 27.1346 22.2628C27.0694 22.3052 27.0261 22.3647 26.9653 22.4106C26.9156 22.4482 26.824 22.386 26.883 22.3415C26.9194 22.3119 26.954 22.2802 26.9866 22.2464C26.988 22.2438 26.9897 22.2413 26.9916 22.239C27.0635 22.1554 27.1412 22.0771 27.2241 22.0048C27.2766 21.9661 27.322 21.9337 27.3645 21.8965C27.3713 21.8907 27.3779 21.8843 27.3847 21.8781C27.4157 21.8367 27.4499 21.7978 27.4867 21.7616C27.4882 21.76 27.4898 21.7585 27.4914 21.7571C27.928 21.331 28.663 21.3499 29.2387 21.0782C29.4667 20.9859 29.7404 21.1244 29.9685 21.0782C30.1116 21.0642 30.2553 21.0965 30.379 21.1705C29.9697 21.3968 29.591 21.6517 29.2173 21.8888L29.2171 21.8885ZM30.1513 18.6795C30.1057 18.6334 30.2881 18.6795 30.3337 18.5872H29.9688C29.9232 18.5872 29.9232 18.5411 29.9232 18.495C29.6951 18.5411 29.4214 18.6334 29.1933 18.6795C28.874 18.7717 28.6003 19.0024 28.2353 19.0947C27.7335 19.2792 27.323 19.6944 26.7756 19.8789C26.7299 19.8789 26.7299 19.8328 26.7299 19.7866C26.7756 19.6482 26.958 19.6021 27.0492 19.4637C27.0492 19.4176 27.0492 19.3715 27.0036 19.3715C27.3686 18.864 27.8704 18.5872 28.3266 18.1722V18.0338C28.4634 17.8493 28.6915 17.757 28.7828 17.5263C28.8761 17.3335 29.0396 17.1848 29.239 17.1112C29.1933 17.065 29.1021 17.065 29.1021 16.9728C28.9196 16.9728 28.7371 17.065 28.5546 16.9267C28.6344 16.848 28.733 16.7915 28.8407 16.7627C28.799 16.7548 28.7619 16.7309 28.7371 16.696C28.6915 16.6038 28.8252 16.5007 28.9652 16.4653C29.1477 16.4192 29.3757 16.4192 29.5126 16.2808C29.1933 16.2347 28.8283 16.3731 28.5089 16.1885C28.7027 15.5981 29.1101 15.1037 29.6494 14.8046C29.695 14.8046 29.7863 14.8046 29.7863 14.8507C29.7909 14.9592 29.7565 15.0658 29.6894 15.1506C29.6223 15.2354 29.527 15.2927 29.4213 15.312C29.7958 15.3606 30.1632 15.4535 30.5162 15.5888C30.4705 15.6811 30.3793 15.635 30.3337 15.635C30.5618 15.7734 30.8355 15.6811 31.0636 15.8656C30.9267 16.004 30.7899 15.8656 30.653 15.8656C32.0672 16.2808 33.5726 16.6038 34.7586 17.5263C33.7559 17.9874 32.6976 18.3131 31.611 18.4951C31.4876 18.5026 31.3639 18.4869 31.246 18.449C31.246 18.4951 31.246 18.5874 31.2005 18.5874C31.0426 18.5685 30.8829 18.6008 30.7444 18.6797C30.562 18.772 30.2883 18.8182 30.1514 18.6799L30.1513 18.6795Z" fill="#000091"/>
<path d="M77.0656 1.18921H51.0973C51.1837 1.21766 51.2665 1.25639 51.3439 1.30457C51.5547 1.41903 51.8276 1.56655 51.999 1.65726C52.3491 1.82013 52.6495 2.07503 52.8689 2.39536C52.9601 2.53371 53.097 2.81054 53.0057 2.99501C52.9145 3.22567 52.8689 3.59466 52.6408 3.687C52.337 3.81078 52.0043 3.84282 51.6828 3.77924C51.4974 3.77105 51.3136 3.74007 51.1355 3.687C51.8196 3.96377 52.4583 4.28665 52.9144 4.93256C52.9601 5.02478 53.1425 5.07097 53.325 5.07097C53.3707 5.07097 53.3707 5.16319 53.3707 5.20933C53.2793 5.30164 53.1881 5.34774 53.2337 5.4861H53.3707C53.5987 5.39385 53.5531 4.93256 53.8725 5.07097C53.9846 5.14085 54.066 5.25152 54.0999 5.38023C54.1339 5.50894 54.1177 5.6459 54.0549 5.76296C53.8839 5.93012 53.7009 6.08428 53.5075 6.2242C53.4849 6.275 53.4732 6.33006 53.4732 6.38576C53.4732 6.44145 53.4849 6.49651 53.5075 6.54731C53.6216 6.71333 53.6993 6.90206 53.7356 7.10089C53.8725 7.42377 53.918 7.79287 54.0549 8.11575C54.272 8.78561 54.3798 9.48674 54.3742 10.1916C54.3742 10.5607 54.1917 10.8835 54.3286 11.2526C54.4499 11.5979 54.6188 11.924 54.8305 12.2214C55.013 12.4564 55.1806 12.703 55.3322 12.9595C55.6059 13.4208 56.1077 13.8821 55.8796 14.4357C55.7427 14.7586 55.241 14.7125 54.9216 14.897C54.6479 15.1277 54.876 15.4967 55.0128 15.7274C55.241 16.1426 54.7391 16.4193 54.4198 16.5577C54.511 16.6961 54.6935 16.65 54.7391 16.7423C54.7847 16.9729 55.0128 17.1113 54.876 17.3419C54.6935 17.6187 54.1461 17.757 54.4198 18.1723C54.6023 18.4952 54.4841 18.8538 54.3741 19.1872C54.3054 19.3627 54.1942 19.518 54.0507 19.6389C53.9073 19.7597 53.7362 19.8423 53.5531 19.8791C53.2718 19.9633 52.9748 19.9791 52.6864 19.9252C52.6031 19.8741 52.5096 19.8426 52.4127 19.833C51.6371 19.7407 50.8616 19.51 50.0861 19.51C49.8664 19.5439 49.6518 19.6059 49.4475 19.6946C49.2489 19.8418 49.064 20.0071 48.8952 20.1884L48.8899 20.1943C48.8556 20.2311 48.8227 20.2685 48.7904 20.3061C48.7704 20.3294 48.751 20.3531 48.7316 20.3768C48.7185 20.3927 48.7057 20.4085 48.6927 20.4245C48.5603 20.5925 48.4403 20.7702 48.3336 20.9561C48.3269 20.9677 48.32 20.9796 48.3135 20.9914C48.3015 21.0127 48.2899 21.0344 48.2782 21.0559C48.1346 21.3253 48.0189 21.6089 47.9328 21.9023C47.6227 22.9588 47.7583 23.8651 47.976 24.0852C48.0364 24.1463 49.4817 24.5975 50.4883 25.0505C50.8596 25.2081 51.2193 25.3922 51.5649 25.6013H77.0657L77.0656 1.18921Z" fill="#E1000F"/>
<path d="M52.6421 10.095C52.8246 10.1412 53.0982 10.1412 53.0982 10.2334C53.007 10.6024 52.4594 10.6947 52.1857 11.0639H52.0489C51.9121 11.1562 51.9577 11.3868 51.8208 11.3868C51.6827 11.3561 51.5384 11.3724 51.4103 11.4329C51.4931 11.5323 51.5988 11.6096 51.7182 11.6578C51.8375 11.7061 51.9667 11.7239 52.0945 11.7097C52.1329 11.7231 52.1665 11.7479 52.1909 11.7808C52.2153 11.8137 52.2294 11.8533 52.2313 11.8944C52.2664 11.891 52.299 11.8745 52.3226 11.8481C52.3683 11.8481 52.414 11.8481 52.414 11.8944V12.0789C52.2769 12.2634 52.0489 12.1709 51.8664 12.2173C52.2102 12.3096 52.5718 12.3096 52.9156 12.2173C53.1894 12.125 52.9156 11.6635 53.0982 11.4329C53.007 11.4329 53.0982 11.2945 53.007 11.2945C53.0982 11.2023 53.1894 11.0639 53.2807 11.0178C53.334 11.0192 53.3869 11.0073 53.4346 10.9832C53.4824 10.959 53.5235 10.9233 53.5543 10.8792C53.5543 10.7871 53.3721 10.741 53.4175 10.6485C53.6912 10.4643 53.9192 10.1873 53.8282 9.91051C53.7824 9.77215 53.4175 9.77215 53.1894 9.6799C52.9313 9.62724 52.6642 9.64314 52.414 9.72604C52.1807 9.76584 51.9516 9.8276 51.7296 9.91051C51.4187 10.0177 51.1263 10.1734 50.8628 10.3718C51.1894 10.2524 51.5251 10.1598 51.8664 10.095C52.1239 10.061 52.3847 10.061 52.6421 10.095Z" fill="#9D9D9C"/>
</svg>
