<?xml version="1.0" standalone="no"?>
<!DOCTYPE svg PUBLIC "-//W3C//DTD SVG 20010904//EN"
 "http://www.w3.org/TR/2001/REC-SVG-20010904/DTD/svg10.dtd">
<svg version="1.0" xmlns="http://www.w3.org/2000/svg"
 width="142.000000pt" height="142.000000pt" viewBox="0 0 142.000000 142.000000"
 preserveAspectRatio="xMidYMid meet">
<metadata>
Created by potrace 1.14, written by Peter Selinger 2001-2017
</metadata>
<g transform="translate(0.000000,142.000000) scale(0.100000,-0.100000)"
fill="#000000" stroke="none">
<path d="M372 1360 c-13 -22 -20 -44 -17 -49 3 -5 1 -11 -5 -13 -6 -2 -13 -14
-16 -28 -11 -42 -17 -203 -8 -197 5 3 10 -6 11 -20 0 -14 6 -29 13 -33 6 -4
10 -10 8 -12 -3 -6 40 -65 60 -82 7 -6 24 -21 37 -33 13 -13 29 -23 35 -23 5
0 10 -5 10 -12 0 -6 3 -9 6 -5 3 3 15 -3 27 -14 11 -10 29 -19 39 -19 10 0 18
-5 18 -12 0 -6 3 -8 7 -5 3 4 17 0 31 -9 13 -9 22 -11 18 -6 -3 6 6 5 21 -3
16 -7 39 -15 53 -17 14 -2 28 -7 31 -12 4 -5 18 -8 33 -8 14 0 23 -4 20 -9 -3
-5 9 -9 25 -9 17 0 31 -4 31 -10 0 -5 8 -10 18 -10 9 0 26 -7 36 -15 10 -8 23
-12 27 -9 5 3 9 1 9 -4 0 -4 16 -14 35 -22 19 -8 35 -18 35 -22 0 -5 5 -6 10
-3 5 3 10 1 10 -4 0 -6 7 -11 15 -11 8 0 15 -4 15 -10 0 -5 7 -10 16 -10 8 0
13 -4 10 -8 -3 -5 4 -15 15 -22 10 -8 19 -21 19 -30 0 -13 1 -13 10 0 8 12 10
11 10 -7 0 -13 5 -23 11 -23 5 0 7 -4 4 -10 -3 -5 -2 -10 4 -10 15 0 18 10 26
70 4 30 8 56 10 58 2 2 -1 17 -5 33 -5 16 -5 31 -1 34 11 6 2 56 -13 74 -9 12
-8 13 4 6 12 -6 12 -5 3 5 -6 7 -9 18 -7 25 3 7 1 16 -5 20 -6 3 -11 17 -11
31 0 13 -4 24 -10 24 -5 0 -10 9 -10 20 0 11 -4 20 -10 20 -5 0 -10 7 -10 15
0 8 -4 15 -10 15 -5 0 -10 6 -10 14 0 8 -9 18 -21 21 -11 4 -18 9 -15 12 7 7
-20 33 -34 33 -6 0 -8 5 -5 10 3 6 2 10 -4 10 -10 0 -72 38 -98 60 -7 5 -22
10 -33 10 -12 0 -18 5 -15 10 3 6 -3 10 -14 10 -12 0 -21 5 -21 10 0 6 -6 10
-14 10 -7 0 -31 8 -52 17 -42 18 -54 22 -96 30 -15 3 -25 9 -22 14 3 5 -9 9
-25 9 -17 0 -31 5 -31 10 0 6 -9 10 -20 10 -11 0 -20 5 -20 11 0 6 -7 9 -15 5
-8 -3 -15 -1 -15 4 0 6 -4 10 -10 10 -10 0 -29 15 -76 57 -13 12 -24 32 -24
43 0 12 -4 18 -10 15 -5 -3 -10 -1 -10 4 0 22 -16 10 -38 -29z"/>
<path d="M251 923 c-2 -36 -2 -37 -14 -52 -10 -12 -9 -13 3 -6 13 8 13 7 1 -9
-13 -15 -13 -19 0 -27 11 -7 11 -9 1 -9 -17 0 -15 -121 2 -132 7 -5 7 -8 -2
-8 -7 0 -10 -5 -7 -10 4 -6 9 -23 11 -37 3 -15 8 -30 12 -33 4 -3 7 -9 8 -15
3 -23 17 -55 25 -55 5 0 8 -3 7 -7 -5 -17 28 -74 46 -79 13 -5 15 -8 6 -14 -9
-5 -9 -9 -1 -14 6 -4 11 -4 11 0 0 3 15 -10 33 -30 18 -20 39 -36 45 -36 7 0
12 -4 12 -10 0 -5 7 -10 15 -10 8 0 15 -4 15 -10 0 -5 9 -10 20 -10 11 0 20
-4 20 -10 0 -5 7 -10 15 -10 8 0 15 -5 15 -11 0 -5 4 -8 9 -4 5 3 15 0 23 -7
13 -13 21 -15 56 -21 9 -1 22 -5 27 -8 6 -4 18 -5 28 -4 9 2 17 -1 17 -6 0 -6
6 -9 13 -8 31 4 58 -2 52 -11 -4 -6 -3 -10 2 -9 4 1 22 1 38 0 24 -1 27 -3 15
-12 -12 -8 -11 -9 6 -7 12 2 32 -6 45 -17 13 -12 19 -14 14 -5 -8 13 -7 13 10
0 43 -33 115 -112 115 -126 0 -24 18 -15 32 16 7 17 15 30 18 30 4 0 8 22 13
73 1 9 4 17 7 17 4 0 7 20 8 45 4 94 2 115 -8 115 -5 0 -7 9 -5 19 2 11 -3 27
-10 38 -8 10 -15 26 -15 36 0 9 -4 17 -10 17 -5 0 -10 6 -10 14 0 8 -9 21 -20
29 -11 8 -17 17 -13 20 3 4 -2 7 -12 7 -10 0 -16 3 -12 6 9 9 -19 34 -38 34
-9 0 -14 4 -10 9 3 6 -21 23 -54 39 -33 16 -57 33 -53 37 4 3 2 6 -3 4 -16 -3
-75 13 -75 20 0 4 -10 7 -22 8 -11 1 -24 6 -27 10 -3 4 -19 9 -36 11 -16 2
-31 8 -33 13 -2 5 -17 9 -33 9 -16 0 -29 5 -29 11 0 5 -4 8 -8 5 -5 -3 -19 1
-33 7 -13 7 -35 13 -48 14 -13 1 -27 6 -30 10 -3 4 -10 9 -16 10 -20 3 -95 40
-91 44 3 3 -8 13 -25 24 -16 11 -29 26 -29 33 0 6 -5 12 -11 12 -6 0 -9 7 -5
15 3 8 1 15 -4 15 -5 0 -11 8 -13 18 -4 13 -5 11 -6 -5z"/>
</g>
</svg>
